<svg data-v-0dd9719b="" version="1.0" xmlns="http://www.w3.org/2000/svg" xmlns:xlink="http://www.w3.org/1999/xlink"
    width="100%" height="100%" viewBox="0 0 340.000000 250.000000" preserveAspectRatio="xMidYMid meet"
    color-interpolation-filters="sRGB" style="margin: auto;">
    <rect data-v-0dd9719b="" x="0" y="0" width="100%" height="100%" fill-opacity="0" class="background">
    </rect>
    <rect data-v-0dd9719b="" x="0" y="0" width="100%" height="100%" fill="url(#watermark)" fill-opacity="1"
        class="watermarklayer"></rect>
    <g data-v-0dd9719b="" fill="#E51714" class="j-b-g-c iconbgsvg" mask="url(#9a8a3bec-e4ad-46e3-afe4-bd0908d83ec9)"
        transform="translate(118.25000106194398,23.864540100097656)">
        <g data-d="container" transform="translate(0,0)">
            <g>
                <rect fill="#E51714" fill-opacity="0" stroke-width="2" x="0" y="0" width="103.50000000000007"
                    height="202.27091250000015" class="image-rect"></rect> <svg filter="url(#colors5991433309)" x="0"
                    y="0" width="103.50000000000007" height="202.27091250000015" filtersec="colorsf8897946425"
                    class="image-svg-container primary" style="overflow: visible;"><svg
                        xmlns="http://www.w3.org/2000/svg" viewBox="0.00421 0.00258 267.72397 523.21313"
                        style="overflow: visible;">
                        <g transform="scale(1, 1) skewX(0)">
                            <path
                                d="M119.38.84c1.9.35 1.26-.68 1.56-.81-3.23-.23-1.48 1.07-1.56.81zM88.3 4.46l.45-.46c-1.44.6-2.85 1.35-4.26 2 1.26-.49 2.51-1 3.81-1.54zM68.87 11.8c-3 1.85-5.59 3.7-7.55 4.83a191.6 191.6 0 0 0 17.17-9.4 21 21 0 0 0-9.62 4.57zM47.35 24.5c-.3 0-.3.66-.3.66a16.59 16.59 0 0 0 2.48-2.85zM42.16 30c-1.39 1.38-3.49 2.76-3.76 4.91.13.16.76-.38 1.7-1.15A4.7 4.7 0 0 0 42.16 30zM38.55 37.8l1.09-1.94c-.32.21-.64.64-1.09 1.94zM40.77 34c.09.62.34-.41 1.32-2.21-.82 1.35-1.68 2.65-2.45 4 .53-.24.88.04 1.13-1.79zM45.34 29.86c1.24-1.58 2.15-2.68 2.67-3.44s.67-1.12.49-1.12-.7.38-1.51 1.14A33.93 33.93 0 0 0 43.88 30c1.74-1.6 3.85-3.73 1.46-.14zM65.78 15.9c-1.29.76-1.91 1.49-3.05 1.55-1.09.67-2 1.27-1.8 1.43 1.67-.73 3.6-1.51 4.85-2.98zM26.33 56l-.19.07a.24.24 0 0 0 .19-.07zM26.27 59.86c1.56-3.22 1.88-4.32 1.71-4.57 1-.57 1.78-1.48.91-3.21-.7.69-.7 2.07-1.51 2.54A5.83 5.83 0 0 1 26.33 56a12.35 12.35 0 0 0 1.47-.58zM39.3 39.61l.1-.3c-.3.51-.59 1-.89 1.53.26-.41.49-.84.79-1.23zM39.4 39.31c1.21-2.12 2.34-4.34 3.46-6.56a24.07 24.07 0 0 0-3.46 6.56zM19.5 70c-.25 1.74-.49 3.47-.66 5.23l.34-2.23zM14.82 90.79a38.45 38.45 0 0 1 1.38-6c-2.84 1.34-1.79 3.73-1.38 6zM14.82 90.79c-.14 1-.23 2-.28 2.94a4.11 4.11 0 0 0 .28-2.94z"
                                fill="#000000"></path>
                            <path
                                d="M14.81 98.27c0-1.4-.18-2.92-.27-4.54a30.78 30.78 0 0 0 .27 4.54zM22.28 69c.21-.53.46-1.13.71-1.73-.28.24-1 .57-2.07 3zM20.85 72.75c.18-.48.62-1.64 1.48-3.83-.41 1.08-1.08 2.51-1.48 3.83zM23.17 66.79c-.07.16-.12.28-.18.44a.45.45 0 0 0 .18-.44zM32.39 53.16c.33-1.51-.49-.7-.49-1.57a8.44 8.44 0 0 0-.9 3.25 8.28 8.28 0 0 0 1.39-1.68z"
                                fill="#000000"></path>
                            <path
                                d="M31.9 51.59a6.23 6.23 0 0 0 .53-2.18 8 8 0 0 0-.53 2.18zM26.58 60l-1.67 5.33A7.48 7.48 0 0 0 26.58 60zM24.2 67.74l.71-2.45-.76 1.69.05.76zM16.48 90.09c0 1.58-.1 3.42-.23 5.1.3-2.11.85-4.18 1.1-6.16-.18-.53-.42-2.03-.87 1.06zM16.25 95.19a17.75 17.75 0 0 0-.19 2c.07-.58.14-1.28.19-2zM18.74 79.7c0 .15 0 .35-.08.5.14-.2.22-.47.08-.5zM16 123.38v.52c.26-.03 0-.73 0-.52zM17.57 88.63a19.09 19.09 0 0 0 .53-4.78c-.25 1.63-.46 3.36-.75 5.18.08.24.15.31.22-.4zM18.29 80.78a29.3 29.3 0 0 0-.19 3.07c.23-1.31.42-2.55.56-3.65a3.66 3.66 0 0 1-.37.58zM21.78 133.73c-3.7-4.94 1.9-10.54-3.25-13.36-3.28-1.41-1.76 4.91-1.16 8.42 1.32-2.1-.66-5.62.95-7 1.33 5.62-1 10.53 3.6 16.86-.14-2.1-.7-3.51-.93-5.54.21-.05.71 2.11.79.62zM15.75 113.36v.39a1.24 1.24 0 0 0 .11.36z"
                                fill="#000000"></path>
                            <path
                                d="M15.76 113.75c-.11-.62.2-1.21 0-1.8-.3 3.5-1.24 7 .23 11.22-.48-3.37-.09-6.1-.23-9.42zM17 101.21V99a5.17 5.17 0 0 0 0 2.21z"
                                fill="#000000"></path>
                            <path
                                d="M15.62 112.15a10.87 10.87 0 0 0 .18-6.24c0-.91 0-1.93.09-3.07.43 1.72.43 3.79 1.13 5.17 1.57-2.07.39-4.53 0-6.8v2c0-.69-.7-2.08-.7-2.77v-1.57c-.3 1.37-1.08 2.65-1.09 4a7.85 7.85 0 0 0-.44 2.92c.15-.78.31-1.64.46-2.54a3.57 3.57 0 0 0 .37 1.27z"
                                fill="#000000"></path>
                            <path
                                d="M16.32 97v1.91a4.11 4.11 0 0 0 0-1.91zM31.58 58.92c-.18.22-.22.16-.28.14-.18.63-.22.88.28-.14zM26 65.09a10.92 10.92 0 0 0 3.55-3C28.89 60.37 31 59.68 31 58.3v.7a4.1 4.1 0 0 0 .7-2.76 49.63 49.63 0 0 1-5.7 8.85zM20.4 86.59c1.07-4.34.4-3.67.22-4.41-.51 2.48-.13 5.27-1.08 8.07.47-1.4 1.06-2.1 1.54-3.5 0 0-.69 0-.68-.16zM14.7 123.25l1.47 5.12-.53-3.71-.94-1.41zM15.59 134.49l.63 2.9.18-2.25-.81-.65zM6.14 361.14c-.06.45-.11.93-.15 1.43a3.45 3.45 0 0 0 .15-1.43zM5.91 363.69c0-.39 0-.76.08-1.12-.48 1.69-1.71 3.66-1.1 5.24 1.86-1.36 1.58-2.73 1.02-4.12zM150.88 12.79a20.85 20.85 0 0 0-3.61-1.79c1.06.35 2.46 1.73 3.61 1.79zM21.27 167.24a2 2 0 0 1-.44-.94c.11.47.24.84.44.94zM17.29 175.22c.09-.41.17-1.21.34-2.61a26.19 26.19 0 0 0-.34 2.61zM17.18 172.94c.06-.71.11-1.27.16-1.8-.14-.3-.25-.09-.16 1.8zM17.13 175.66c0 .61 0 1.48-.08 2.91.05-1.19.14-2.29.24-3.35-.08.4-.13.56-.16.44zM240.23 239.88c.06-.16.11-.33.17-.5.33-2.3.12-1.29-.17.5zM24.6 423c-1.3-2.26-3.39-5-2.69-7.78-.7 1.38-.7 2.76-1.73 4.18zM17.25 154.29c-.2 0-.45.65-.56-.17l.37 4.26a19.58 19.58 0 0 1 .19-4.09zM16.69 154.12v-.45c-.03.18-.01.33 0 .45zM19.66 112.43c.06 3 .44 5.16.57 2.2.28-.41-.42-1.79-.57-2.2zM19.62 150.25c.78-.14.37-3.12 0-6.45v.58c-1.13-1.31-.53 2.31 0 5.87zM19.55 143c-.11-1-.24-2.08-.26-3.06-.48-.5-.01 1.24.26 3.06zM16.15 180.63c1.31 1.41-.17 3.5 1 4.87.15-.06.21-.85.27-2.9-1.49-.6 1.01-1.95-1.27-1.97zM22.1 148.39c-1.07.06-.48 1.47 0 2.91zM22.06 173.37c.83-1.78.68-3.88 0-6.39-.06 3.1-.3 6.45 0 6.39zM22.05 167a25.25 25.25 0 0 0-.27-4.13c.03.87.13 2.78.27 4.13zM22.71 160.56l.07-5a20.56 20.56 0 0 0-.07 5zM15.32 225.11c-.24 1.66-.52 3.3-.68 4.95.34.52.8-.8 1-2.63.01-1.2.25-3.05-.32-2.32zM21.52 212.61l-.11-1.68c-.53.52-1.98.76.11 1.68zM21.36 210.14l.05.79c.21-.2.29-.45-.05-.79zM20 225.84c-.3-.53.3-5.52-.89-1 .26.54-.39 7.16.89 1zM8 295.85l2.67.82c.78-1.67-.95-1.03-2.67-.82zM16.21 363.46c.17.74.44.72 1.13-.37 1.4-2.73-2.1-4.79-.39-7.5-1.95 3.41-.55 5.41-.74 7.87zM15.48 357.46a13 13 0 0 0 .28 1.9c-.07-.6-.16-1.24-.28-1.9zM132.56 3.74c-1.38-.55-2.76-1.16-4.16-1.65.89.46 1.76 1 2.63 1.51zM124.32 3.36c-.44-1.68-1.83-1.68-3.51-.79a10.89 10.89 0 0 1 3.51.79zM249.4 418.78c-.63 1.39-1.26 3-2 4.51a26.27 26.27 0 0 1 2-3.07c.6-.9.8-1.35 0-1.44zM247.45 423.29c-.18.35-.36.72-.53 1.11.18-.35.36-.73.53-1.11zM222 466.12l1.34-1.91c-.65.88-1.06 1.47-1.34 1.91zM210.34 478.28v.57c.4-.69.52-1.03 0-.57zM90.53 511.56c-.89-.53-2.2-1.13-4-2 1.29.7 2.65 1.32 4 2zM224.66 477.53c.9-1.21 1.18-1.81 1-1.91-.91 1.24-1.38 2-1 1.91zM38.5 465.9a15 15 0 0 1-1.5-2.31c.68 1.27 1 2.05 1.5 2.31zM251.14 215.89l.69-1.57c.17-.92.26-1.85-.69 1.57zM6.54 360.71a4.53 4.53 0 0 0 .46-1.13 6.72 6.72 0 0 0-.46-1.58zM14.29 418.13c-.24-.51-.49-1-.76-1.49a2 2 0 0 0 .76 1.49zM243.3 432.65c.5-.95 1-1.91 1.42-2.89a13.17 13.17 0 0 0-1.42 2.89zM265.58 368.62l.09.38a.74.74 0 0 0-.09-.38zM240.07 237.07c.26-1.08.53-2.16.8-3.23-.28 1.07-.54 2.16-.8 3.23zM234.24 274.41c0-1.13.07-2.26.16-3.38a5.74 5.74 0 0 0-.16 3.38zM235 286.19a9.87 9.87 0 0 0 .69 4.1 22 22 0 0 1-.69-4.1zM251.19 346.22l-.16-.49a2.34 2.34 0 0 0 .16.49zM15.55 237.2a3.88 3.88 0 0 0 0 2.41c.24.32.5.65.78 1a7 7 0 0 1-.78-3.41z"
                                fill="#000000"></path>
                            <path
                                d="M17 235.74a6.14 6.14 0 0 0-.7 3.45c.7-3.45 2.09-6.9.7-10.35 0 3-1.43 5.59-1.47 8.36a2.85 2.85 0 0 1 1.47-1.46zM18.41 214.34q.15-1.28.33-2.55a4 4 0 0 0-.33 2.55zM79.88 511.23h-2.1l.12.16a2.88 2.88 0 0 0 1.98-.16zM15.66 316.12a2.93 2.93 0 0 0 .66 1.79 15 15 0 0 1-.66-1.79zM15.62 315.14a5.12 5.12 0 0 0-.1.54c0 .14.09.29.14.44a9.07 9.07 0 0 1-.04-.98zM16.32 241.27l-.15.26.15.43zM258 174.29h.07c.11-.26.23-.5.34-.76a1 1 0 0 0-.41.76z"
                                fill="#000000"></path>
                            <path
                                d="M130.17 5.82h-1.4c7 9 18.16 13.12 27.94 18.64h-1.39c3.49.7 5.58 3.46 8.38 5.53h-.7c11.17 6.9 18.86 17.26 27.94 26.93v-1.39c1.39 1.39 2.79 3.46 4.19 4.84-1.4-2.07-3.49-3.45-4.19-6.22 8.38 11.74 19.55 20.72 27.24 32.46l-2.8-2.77c3.5 3.46 5.59 7.6 9.78 11-.7-1.38-2.09-2.76-2.79-4.14 15.36 18.64 37.72 36.59 37 62.83L258 152.2c2.6 6.43 2.17 13.47 2.1 20.55-.12-.05-.34 0-.7.16-.69.68 0 1.35-1.33 1.38-2.34 5.58-2.27 11.68-3.59 17.3a10 10 0 0 1 1.43-2.8c-1.36 9.41-7.35 17.51-9.6 26.85a74.07 74.07 0 0 0-5.07 19.41c.45-2.24 1.19-4.47 1.84-6.7-1.21 5.67-1.51 11.36-3.24 17.06a20.6 20.6 0 0 1 .19-3.52l-1.59 6.28a47.83 47.83 0 0 1 1.64-11.1c-1.59 6.46-3 12.92-3 19.39l-.7-.69a15 15 0 0 1-.7 5.52v-3.45c0 4.39-.88 8.79-1.24 13.19a11.39 11.39 0 0 0 .54-2.84v.69c0-.69.7-1.38.7-2.07.57 6.25-1.21 13-.69 19.38v-.74c1.4 4.84.7 9 2.1 13.81v-2.07c1.72 6.83 3.46 13.66 5.58 20.1-.21-.26-.44-.51-.69-.77a7.77 7.77 0 0 0 2.09 5.53l-1.4-1.38q4.2 10.35 8.39 20.71l-.7-.69c0 1.38 1.39 2.76 1.39 4.14-2.09-2.76-2.09-6.21-4.19-8.28 1.73 2.85 2.51 6.16 3.52 9.18a1.49 1.49 0 0 1 0-.21c.05.26.13.5.2.75a1 1 0 0 1 0 .1c.92 3.09 3.32 5.74 4 9.56l-1.4-1.38a24 24 0 0 1 2.79 6.21c-1.39-1.38-2.09-3.45-3.49-4.83 4.49 10.24 5.9 21 5.43 31.83l-.83-2.53c0 3.59.41 2.36.82 2.64-.49 11-2.95 22.18-6.12 33-.7 1.38-.7 2.76-2.79 2.07-1.4 6.22-4.19 11-7.68 15.88a14.85 14.85 0 0 1 3.49-5.52 18 18 0 0 0-3.49 4.14 43.64 43.64 0 0 1 1.37-4.7c-2.67 5.07-6 9.79-8.43 14.85-1 1.79-1.53 3.17-1.07 3.73-.85.89-1.76 1.73-2.63 2.59.64-.82.6-1.05 1.24-1.86-2.65 2.44-3 3.79-3.48 5.4a13.89 13.89 0 0 1-1.05 2.8 20.33 20.33 0 0 1-3 4.13c-2.25 2.29-4 3.69-2.85 1.83-.67 1-1.37 1.94-2.08 2.88s-1.41 1.92-2.14 2.85c-1.19 1.18-1.42.94-.69 0-2.2 2.41-4.44 4.79-6.78 7.07v-.11c-.4.68-1.12 1.75-1.88 2.82s-1.6 2.09-2.14 2.77c-2.33 1.53.84-1.14.07-.94-1.32 1.52-2.74 2.94-4.12 4.41-2.38 1 1.06-2.66 4.18-5.34a8.39 8.39 0 0 0-5.19 3.26c-1.36 1.52-3.28 3.73-8.63 6.55 1.47-1.15 2.86-2.4 4.29-3.59-3.85.88-7 3.94-12.81 6.39a22.64 22.64 0 0 0 2.43-.8c1.1-.41 2.4-.84 3.47-1.19 2.14-.7 3.53-.84 1.08 1.29-.8.45-1.75.94-2.79 1.65-.52.35-1.07.75-1.66 1.21s-1.23 1-1.9 1.52c-.28-.42-1.11-.14-2.32.53s-2.85 1.65-4.71 2.65l-.37-1.3a15.85 15.85 0 0 0-3.33 2.55 16.69 16.69 0 0 1-2.09 2c-4.71 2-6.1 1.38-7.52 1-3.78 1.34-2.35 1.23-1 1.24.65 0 1.26 0 1.16.29s-.29.32-.78.59a16.33 16.33 0 0 1-2.4 1c-1.65.43-3.14.9-4.61 1.3-.73.21-1.45.44-2.16.68l-2.17.66-2.21.74-2.36.72c-1.62.54-3.39 1-5.36 1.56-4.79.23.7-.9-1.05-1-1.33.53-2.67 1.1-4 1.6-1 .08-.74-.28-.59-.46-1.74.38-1.79.72-2.09 1.07s-.85.76-3.67 1.08c-.72.79-3.68.39-7.26-.15-.89-.15-1.82-.29-2.78-.41s-1.91-.3-2.88-.39a24.82 24.82 0 0 0-5.64-.06c-.83-.29-.6-.48-.22-.64s.91-.37.68-.65h-3.11c-.9 0-1.65 0-2.32-.09-1.34-.08-2.31-.14-3.24-.18s-1.79-.12-2.94-.16l-2-.08-2.61-.19-1.57-.63-1.7-.78c-1-.48-2.07-.9-3.07-1.41 2.18 1.23 1.72 1.63 0 1.66a30.66 30.66 0 0 1-3.41-.32 15.89 15.89 0 0 1-4.33-.95c-.9-1.32-2.21-.71-3.21-.59 1 .24 2.13.55 3.35.78 0-.07-.09-.11-.13-.17 1.37.7 2.74 2 4.11 2.71-2.74-1.35-6.83 0-9-3.29-.84-.21-1.51-.76-1.51-1.54 0-1.38 2.09-1.38 2.79-.69 2.1 1.38 4.89 3.45 7 1.38-.7 0-2.1-.69-2.8-.69h1.4c-12.57-8.29-26.54-13.12-37-24.17 4.89-2.76 8.38 6.22 14 9.67 0-.69-.7-1.38-1.4-2.07H61c-4.89-3.45-9.08-6.9-11.17-12.43l-.7.69c-4.19-2.07-4.89-7.59-8.38-10.35 3.49 0 2.79 2.76 4.19 4.83 0-1.38 0-3.45-1.4-4.14-5.59-3.46-7.68-9-8.38-14.5v.69c-4.89-9.67-7-20.72-12.57-29.69a4.24 4.24 0 0 1 2.79.69c-2.79-5.53-9.78-9.67-9.08-15.19.7-2.07 4.19-2.76 5.59 1.38-.7-3.45-2.1-6.91-2.8-10.36a6.14 6.14 0 0 0-.7 3.45c-2.09-5.52 0-11.73-4.19-16.57H17c-3.49-6.21-1.4-14.5-.7-21.4a5.51 5.51 0 0 0-.49 1.39c-.21-5.67-4.21-10.52-3-15.89 0-.69 2.09 4.83 1.39-2.07-.69-8.29-6.28-16.57-6.28-25.55a66.16 66.16 0 0 1 7.68 19.33c2.1-2.07 1.4-4.83 1.4-6.9.7 1.38.7 3.45 1.39 4.83-2.09-6.9 1.4-14.5-2.79-20.71 0 4.14 2.1 8.29 1.4 13.12-2.8-4.83-5.59-11.05-3.49-16.57l2.09 2.07c1.31-2.58-.44-5.17-.1-7.75-1.52-5.47.1-10.94.1-16.42-2.09 2.77-4.19 5.53-7 2.77-3.5-2.77-2.8-9.67 2.09-12.43.7 2.07 2.1 2.07 3.49 2.07 0-.14-.06-.29-.09-.43.19-.22.3-.9.28-2.4a11.19 11.19 0 0 1-.34 2.11c-.72-3.29-1.85-7.11-.54-10.33-.7.69-.7 2.07-1.4 2.76-3.47-13.71-3.49-29.46 4-41.85a19.6 19.6 0 0 1-.63-1.92c-4-5.43-3.29-12.51-1.32-18.37l.7.69c3.49-8.28-1.39-18 4.19-25.54 2.1 5.52-1.39 9.66-1.39 15.19.69-1.38.69-3.46 1.39-4.84a3.6 3.6 0 0 1 .34.53c1.75-10.09 4.29-20.27 3.16-30.91-2.1 1.38 1.39 2.77-.7 4.15a8.68 8.68 0 0 1-.7-4.15v1.38c-.69-5.42-4.05-11.51-.2-17a37.07 37.07 0 0 0-.5-7.19 8.64 8.64 0 0 1-.7 4.14c-.7-6.21-2.79-11.74-2.09-17.95-1.4 1.38-1.4 4.14-.7 5.52 2.79 9-.7 18.65.7 27.62 0-1 .67-1.26.84-1.82.72 4.44 1.86 8.35.55 12.87a1 1 0 0 0-.44-.79c.94 2.56-.36 5.08-1.65 7a4.1 4.1 0 0 0-.7-2.76c-1.7 16.77-5.45 33-8.92 49.47A23 23 0 0 0 6.5 240c.15-.37.31-.73.48-1.09l-.57 2.76c0-.57.09-1.13.09-1.67a13.71 13.71 0 0 0-1.44 7c.23-.56.42-1.12.59-1.68-1.57 7.86-3 15.79-4 23.86-1.54 2-1.78 6.36-1.59 11.05.19 15.58 9.27 30.77 5.78 46.65v-3.45c-.7 11.05 2.1 22.78 1.4 33.83l-.7-.69a4.33 4.33 0 0 1 .41 3c.4 3.08-1 6.49-.41 9.42 0-.69.7-.69.7-1.38 1.4 15.19 1.4 31.76 7.68 45.57 0 1.38.7 3.45 0 4.83a.48.48 0 0 1-.63.11c2.18 4.57 3 10 5.52 14.39h-.7c5.59 20 13.27 39.36 25.15 56.62 0-.69.7-.69.7-1.38 1.39 3.45 4.89 5.52 6.28 9h-.7c4.89 4.14 9.08 9 14.67 11.74h-1.39a3.85 3.85 0 0 1 3.49 2.07c-.7 0-2.1-.69-2.8-.69 2.8 1.38 6.29 3.45 8.39 2.76 4.88-1.38 7.68 4.14 12.6 2.87.68.52 1.62 1.13 1.7 1.4s-.72.25-3.47-.67a101.48 101.48 0 0 0 10.64 3.69c1.12.29 2.22.57 3.25.81s2 .38 2.82.51a15.27 15.27 0 0 0 2 .19c.51 0 .83-.1.9-.26a17.22 17.22 0 0 0 5.35.83l2.43.36c.72.11 1.38.16 2 .24 1.2.13 2.18.26 3.16.34 2 .13 3.93.31 7.52.27l-2-.25a9.11 9.11 0 0 1 4.76-.77l3.08.13c1.15 0 2.42 0 3.85-.17l-.15.18a53.55 53.55 0 0 0 6.69-.26 21.39 21.39 0 0 0 2.73-.48c.69-.15 1.37-.34 2.69-.53.66-.1 1.49-.18 2.56-.32s2.37-.31 4-.5l-.93-.82c.18-.57 1-1 2.18-1.27s2.84-.5 4.65-.82a37.46 37.46 0 0 0 11.47-3.24l-2.75.45c1.79-1 4.69-1.48 7.7-1.88 1.49-.24 3-.44 4.41-.7a19.67 19.67 0 0 0 3.59-1c.91-.26-1.15.93-2.23 1.64a24.28 24.28 0 0 0 4.6-2c.65-.45.63-.67.5-.9-.26-.47-.88-.89 2.55-3.06 1.66-.19-.74 2.54 4.07-.22 1.32-.5 4.4-3.14 7.85-6.18s7.21-6.55 10.48-8.47c-1.62.65-3.2 1.27-.6-1.44a46.8 46.8 0 0 1 3.83-3.1c1.43-1.12 3-2.28 4.47-3.49 3-2.43 5.67-5.05 6.79-7.53.6-.44.89-.55 1-.48 1.33-1.76 3.54-4.55 5.48-7.26 1-1.36 1.88-2.69 2.6-3.85a16.68 16.68 0 0 0 1.44-2.81c2.63-.52 6.38-6.23 9.46-11.66 7.06-11.31 16.14-21.66 18.24-34.78v.63c4.84-15.05 6.93-32.8 2.22-47.9.14.21.36.35.48.57-3.5-15-9-28.73-16-42.43-1.4 1.38 2.79 2.07.7 4.14a3.57 3.57 0 0 0-1.4-2.76v.69c-.7-2.07-2.09-4.14-2.09-6.9 1.39 0 0 2.07 1.39 2.07-8.38-25.55-11.87-53.17-4.89-79.4-.7.69-.7 2.07-1.39 2.76.63-2.52.71-5.61 2.3-8.23.87-3.47 1.52-6.75 2.59-10.41a15 15 0 0 1-.7 5.52c.7-1.38.7-3.45 1.39-4.83v.69c0-8.07 3.41-15.18 7-22.13-.64-2 1.27-4.64.76-6.67 6.7-16.78 12.45-34.78 9.78-52.72 0 .69-.7 1.38-.7 2.07 0-9.67 0-19.34-6.29-27.62a2.4 2.4 0 0 0-.7 1.38c-5.59-13.12-16.06-23.48-25.14-35.21 0 .69 0 1.38-.7 1.38-2.8-5.53-7-9-11.18-13.81 0 .69.7.69.7 1.38-20.99-23.48-42.63-46.26-68.47-64.9l1.4 1.38c-9.78-1.38-16.77-10.36-27.24-9 1.39.02 2.09.71 3.49.71zM10.73 396.22a1.2 1.2 0 0 0 .41.36c-.21.19-.2 1.04-.41-.36zM72.75 505a7 7 0 0 1 2 1 25.06 25.06 0 0 1 2.37 1.67 18.93 18.93 0 0 1-4.37-2.67zm121.42-12.12c-.78.5-1.76.91-3 1.55.59-.54 1.44-1.4 2.3-2.14a6.2 6.2 0 0 1 2.36-1.53 4.19 4.19 0 0 1-1.66 2.1zm52.1-277.06c-.05.2-.11.4-.15.61a1.52 1.52 0 0 1 .15-.63z"
                                fill="#000000"></path>
                            <path
                                d="M21.21 160.48c-.07.1-.13.2-.2.29v.37c.06-.21.12-.43.2-.66zM18.67 183.17a5.05 5.05 0 0 0-.26-.59.8.8 0 0 0 .26.59zM254.51 207.36c.69-1.36 1.4-2.71 2.08-4.07-.68 1.36-2.04 2.71-2.08 4.07zM254.51 207.36s0 .03 0 0zM244.72 237.81a8 8 0 0 0-.49.75c-.28 1.11-.57 2.23-.91 3.4.68-1.38.68-2.77 1.4-4.15zM258.4 173.53a.82.82 0 0 0 .29-.62c-.11.21-.19.42-.29.62zM253 196a17.81 17.81 0 0 1-1.3 2.43A9.78 9.78 0 0 0 253 196zM21 161.14a15.74 15.74 0 0 0-.5 4.87 38.47 38.47 0 0 0 .5-4.87zM240 241.89l.51-2a12.35 12.35 0 0 0-.51 2zM254.47 191.59c-.53 1.45-.91 3-1.47 4.44a24.85 24.85 0 0 0 1.47-4.44zM19.45 207.27c-.26 1.51-.5 3-.71 4.52.61-1.49 1.57-2.89.71-4.52zM240.87 233.84c.35-1.44.71-2.87 1-4.3-.3 1.46-.65 2.86-1 4.3zM235.52 291.15c0-.26-.08-.49-.11-.74.03.28.07.53.11.74zM217.1 471.89l.67-.73a8 8 0 0 0-.67.73zM86 509.82a1.11 1.11 0 0 1 .45.76c.69.07.77-.11-.45-.76zM180.7 498.56a18.53 18.53 0 0 0 2.09-1.1c-1.08.38-2.19.71-3.3 1l-.12.44a3.59 3.59 0 0 0 1.33-.34zM224.56 461.05l-.67.77 2.17-.71-1.5-.06zM20.76 260.12c.25-1.51-.82-1-1-1.19-.03 2.54 1.24 1.13 1 1.19zM22.73 288.39l-.67-3.27-.42-.42 1.09 3.69zM22.88 309.23c1.52-2.48-.63-8.75-.13-13.12 2.12-1.2-.08-1.77-1.06-2.57.36 5.23 1.49 11.94 1.19 15.69zM20.12 323.08c0-.28-.14-1.15-.28-3.35-.07.31-.1.4-.15.58v2.55c.25-.37.38.02.43.22zM20.12 323.08c0 .17 0 .11 0 0zM20.11 332.51c-.18-1.15-.37-2.29-.54-3.43-.38.8-.43 4-.69 2.83.27 3.61.63 2.78 1.23.6zM21.19 335.67c-.08-.6-.13-1.2-.2-1.8a2.13 2.13 0 0 0 .2 1.8z"
                                fill="#000000"></path>
                            <path
                                d="M20.83 332.12c.46.23 0-.46-.3-2l.46 3.79c.25-.6.75-.74-.16-1.79zM20.77 327.85c.33-2 .5-4.56 1.08-1.17-.15-3.29-.43-4.66-.72-4.37s-.51 2.23-.36 5.54zM19 355.47c.31.16.87-1.48 1.28-1.86l-.28-2.68c-.28 1.47-.53 4.24-1 4.54z"
                                fill="#000000"></path>
                            <path
                                d="M20.27 353.61c.14 1.35.28 2.7.44 4.05.12-3.74-.07-4.37-.44-4.05zM22.86 336c-.38-2.07-.71-4.14-1.11-6.2.4 2.47.72 5 1.11 7.44zM18.89 372.76l.27 1a4.23 4.23 0 0 0-.27-1zM18.06 369.65a8.39 8.39 0 0 0 .83 3.11c-.28-1.03-.55-2.07-.83-3.11zM19.25 390.7a4.8 4.8 0 0 0 .48 1.13 10.36 10.36 0 0 1-.48-1.13zM18 384.3a42.29 42.29 0 0 0 1.3 6.4c-.69-2.52.73-5.37 0-7.49-.75-1.68-.86 2.98-1.3 1.09zM20.89 396c-.32-1.23-.75-2.47-1.17-3.82a21.4 21.4 0 0 0 1.17 3.82zM19.53 368.62a21.63 21.63 0 0 0 .9-3.67 8.09 8.09 0 0 0-.9 3.67zM20.42 366.59a5.21 5.21 0 0 0-.09 3.78c.01-.48.04-1.62.09-3.78zM21.86 346.61c.41 2.29.79 7.19 1.69 2.15-.55-1.58-1.05 1.29-1.69-2.15zM21.05 357.47c.17 1.55.3 3.11.5 4.66.07-1.51.2-3 .29-4.54-.23.15-.58 1.04-.79-.12z"
                                fill="#000000"></path>
                            <path
                                d="M21.55 362.13l-.1 1.7.33.45-.23-2.15zM21.3 385.69c-1.49 2.64.61 5.4.61 8.16a16.7 16.7 0 0 0-.31-4q-.17-2.12-.3-4.16zM27.73 419.87l-.13-.51c-.11.04-.11.73.13.51z"
                                fill="#000000"></path>
                            <path
                                d="M21.42 385.17a14 14 0 0 0-.55-4.34c.13 1.51.31 3.11.43 4.86.13.13.21.13.12-.52zM22.54 403c-.05-1.18-.15-2.49-.26-3.85-.06 1.2-.03 3.58.26 3.85zM20.25 378.31a19.36 19.36 0 0 0 .62 2.52c-.12-1.22-.25-2.34-.42-3.29a6.12 6.12 0 0 1-.2.77zM26.28 414.43l-1-4c.46 3 0 6.21 2.23 9-.71-1.43-.71-3.43-1.23-5zM25.26 410.4v-.17zM25 409.34c.07.29.14.59.19.89l.17.2a2.42 2.42 0 0 0-.36-1.09zM25 409.34a10.17 10.17 0 0 0-.31-1 2.12 2.12 0 0 0 .31 1z"
                                fill="#000000"></path>
                            <path
                                d="M25.21 410.2l-.19-.71c-.19.16-.02.51.19.71zM23.33 402.07c.41 2.15.89 4.38 1.37 6.28-.46-2.26-.91-4.22-1.37-6.28zM22.82 399.23c1.09 1.19 2.37 5.78 2.64 2.45-.76-3-.76-5.06-2.85-7.13 1.39 1.38.69 3.45.69 4.83-.69-2.07-.69-3.45-1.39-5.53-.53 1.57.53 3.52.79 5.27.21 1 .42 2 .63 2.95-.19-.97-.33-1.93-.51-2.84z"
                                fill="#000000"></path>
                            <path
                                d="M22.61 400.76a3.59 3.59 0 0 0 .09-1.64l-.09-.43zM23.75 383.81l-.12 1a3.83 3.83 0 0 0 .12-1zM24.12 380.67c-1.46-.5.59-3.23-1.49-3.23-.58 2.37 1.09 4.24 1.12 6.37.11-1.05.25-2.09.37-3.14zM26.5 420.43l2.45 3.85-1.34-3.29-1.11-.56zM29.93 431.17l1.27 2.38c-.2-1.72.49-3.1-1.27-2.38zM228.55 453.93c1-.88 1.55-1.52 1.06-1.62l-1.35.29a25.49 25.49 0 0 1-3.55 4.39c1.29-1.08 2.82-2.18 3.84-3.06zM94.78 507.05a40.32 40.32 0 0 0 3.79 1.47c.58.19 1.14.38 1.67.54l1.58.41c-3.4-1.3-5.92-2.85-7.04-2.42z"
                                fill="#000000"></path>
                            <path
                                d="M105.87 510.69c.72.15 1.45.26 2.19.34a16.74 16.74 0 0 0 2.24 0c-.51-.17-1-.28-1.53-.44a43.64 43.64 0 0 1-7-1.13 23.34 23.34 0 0 0 4.1 1.23zM44.6 457.81c.28.34.54.56.72.46a1 1 0 0 1-.72-.46zM46.68 468.94c-.17-.44-.53-1.22-1.18-2.56.32.78.72 1.62 1.18 2.56zM48.43 471.94a30.21 30.21 0 0 1-1.75-3c.17.4.22.59.14.52.33.54.81 1.27 1.61 2.48zM30.63 88l.18-.27a1.55 1.55 0 0 0-.18.27zM246.51 338.89c-.07-.4-.12-.74-.17-1zM246.6 339.4l-.09-.51zM246.64 339.64v-.24zM246.75 340.31l-.11-.67c.03.21.07.43.11.67zM246.78 340.51v-.2zM246.82 340.69v-.18zM76.65 23.42l-1.25.36-.31.36 1.28-.52zM241.2 323.51c.22.39.47.8.73 1.3 0-.55-.02-1.1-.73-1.3zM94.11 17.13a22.65 22.65 0 0 1 3.23-.95 2.48 2.48 0 0 0-3.23.95z"
                                fill="#000000"></path>
                            <path
                                d="M241.76 323.38c.06.24.12.49.17.74a2.41 2.41 0 0 0-.17-.74zM235.42 305.18c.08.33.14.66.22 1a3.74 3.74 0 0 0-.22-1zM39.55 441.31a2.61 2.61 0 0 0 .38.7l-.18-.36zM25.58 232.3a1.68 1.68 0 0 0-.18.68zM246.34 337.89v-.17z"
                                fill="#000000"></path>
                            <path
                                d="M38.67 70.72c-.7 1.39-.7 3.46-1.4 4.84l-.7-.69C31.69 82.46 31 90.75 30.29 99l.7-.69c-5.59 18.64 0 38 .45 57.62.22-.61.55-1.53.77.3.86 25.39.18 51.38-6.63 76a3.83 3.83 0 0 0 .52-1.39 6.14 6.14 0 0 1-.7 3.45.77.77 0 0 0 .5-.17 22 22 0 0 0-.37 2.86c0-.7.23-1.8.4-2.88.25-.21.41-.5.87-.5-1.4 6.91-4.19 13.81-2.1 20.71v-2.76l.7.69a9.36 9.36 0 0 0 2.09-2.76c-.48 19.07-1.57 38.3-2.3 57.56a3 3 0 0 0-.83-1.53c.29 1.06-.34 4.92.17 4.7a8 8 0 0 0 .61-1.63c-.52 14.08-.83 28.18-.57 42.22h-.21c-.6 3.39-.46 6.8-1.68 10.2 1-2.72 2.65-5.44 1.7-7.71a2.08 2.08 0 0 1 .22-.8c.46 20.61 2.19 41.12 6.39 61.33-.7 0-1.4-.69-2.1-.69-2.79 4.14 0 6.21 1.4 10.35-.7-2.76-.7-5.52-1.4-8.28 2.8 2.76 1.4 6.9 3.49 9.67 4 5.23 4.19 11.08 7.17 16.38 0-.1-.08-.2-.11-.3l.31.64.32.54a1.1 1.1 0 0 1-.14-.18c4.25 8.91 7.62 18.29 12.71 27.1l-2.79-2.76c0 .69.69.69.69 1.38-4.19-4.83-8.38-9-8.38-15.88 0 2.07 1.4 4.15 2.1 6.22-1.4-4.15-2.1-9-4.89-12.43a11.59 11.59 0 0 0 .7 4.83c-2.8-4.83-5.59-9.66-7-15.19.7 9.67 7 18 9.78 27.62v-.69c1 1 .93 2.32 1.57 3.26a8.25 8.25 0 0 0 1 1.6c-.24-.45-.42-.83-.6-1.2a2.36 2.36 0 0 0 .86.48c0-.69-.69-2.07-.69-2.76A66.45 66.45 0 0 1 52.27 474h-.33c1.4 2.07 4.89 4.14 4.19 6.9-.7.69-1.39-.69-2.09-1.38 9.08 13.81 23.74 21.4 38.66 26.59 5.15 1.48 10.48 2.81 16.07 4.54 1.71.11 3.44.29 5.46.39s4.31.31 7.15.57l1.09.83c1.11-.06 2.48 0 4 0s3.06.08 4.56 0l2.18-.05c.69 0 1.33-.1 1.91-.17a7.4 7.4 0 0 0 2.5-.57c2.49.76 7.91.14 13.48-1.41s11.24-3.85 14.89-5.14l-.14-1.08a79.12 79.12 0 0 0 14.77-8l-.83-.61a37 37 0 0 1 3.92-2.61c1.45-.94 3.11-1.83 4.8-2.87a78.25 78.25 0 0 0 10.45-7.24c-.2.68-2 2-3.39 2.79 4.81-2.39 8.78-6.35 12.33-10.4s6.74-8.21 10.43-11.23a20.18 20.18 0 0 1 3.69-4.33 3 3 0 0 0-.33.48c.16-.18.38-.46.61-.74.78-.7 1.61-1.4 2.45-2.22a26.27 26.27 0 0 0-2.12 1.82 68.19 68.19 0 0 0 4.18-5.89l1.49-.32.35-.52c1.87-1.9.87-2-.57-1.29 10.39-12.06 13.89-26.56 21.57-40.36 0 .69.7 1.38.7 2.07 0-4.84 1.39-9.67 1.39-14.5l.7.69c3.5-19.33-1.39-38-5.58-58-2.8-5.52-2.8-11.74-6.29-17.26a2.45 2.45 0 0 1 .67.08 4 4 0 0 1-.67-2.15 5.69 5.69 0 0 1 1.23 2c-1.61-7.22-6.82-12.63-6.82-20a8.06 8.06 0 0 0 .48 1.77 159.29 159.29 0 0 1-4-35.6v-9l.7.69c.7-6.22.7-12.43 2.79-18l-.7.69c0-6.22 3.49-11.74 4.19-17.95a4.1 4.1 0 0 0-.7 2.76c-.61-5.46 3.63-9.33 5.62-13.93v.81c.11-.55.24-1.09.35-1.64.13-.37.25-.74.35-1.12a1 1 0 0 0-.15.19c2.21-10.1 5.9-19.7 7.83-29.88l-1.39 1.38a63.42 63.42 0 0 0 3.65-18.6v-.4c1.2-36.57-31.33-66.21-54.65-92.81.7 0 .7.69 1.4.69-10.51-10.33-19.59-23.46-33.56-30.35 0 2.07 3.49 1.38 3.49 3.45-.7 0-2.09-.69-2.79-.69 0 .69.7.69.7 1.38-2.1-2.07-4.19-3.45-5.59-6.21l2.09 2.07a75.89 75.89 0 0 0-29.42-21.49 73.58 73.58 0 0 0-36.23-5.44c.7.69 1.39.69 2.09 1.38-2.79-.69-4.89 1.38-7.68 0a4.45 4.45 0 0 1 .26-.43 45.3 45.3 0 0 1-7.94 2.5c.69-1.38 3.49-.69 3.49-2.76-1.4.69-2.1 1.38-3.49 1.38h.69c-3.28 2.53-6.94 3.92-10.49 5.37-1.66 1.12-1.64 1-1.28.52a27.92 27.92 0 0 0-7.78 4.47 4.23 4.23 0 0 0 2.79-.69 18.47 18.47 0 0 1-4.19 3.45c.7 0 1.4-.69 2.1-.69-7.69 4.49-13.62 10.87-18.51 18.12s-8.73 15.37-12.21 23.31zm98.61 435.48a27.15 27.15 0 0 1-3.79 1c.21-.31-.52-.61-1.08-.82 2-.15 4.08-.36 6.1-.64zm37-9.19l-2.07.74c-1.12.36-2.57.81-4.07 1.27s-3.09.82-4.45 1.1-2.51.46-3.16.51a1.59 1.59 0 0 1-.91-.18c2.35-.85 4.68-1.8 7-2.82l.79 1.37c.06-.6.11-1.2.16-1.8 2.23-1 4.44-2.11 6.63-3.28a2.81 2.81 0 0 1 .04 3.08zM72.9 491.9l-3.5-3.45a25.09 25.09 0 0 1 7 4.83L75 491.9c8.38 4.83 16.76 9.66 25.84 11.74a16.15 16.15 0 0 0-2.46.11 41.14 41.14 0 0 1-12-2.27c-5.07-4.06-10.66-6.82-16.95-9.58-3.49-1.38-7-3.45-7.68-8.29 6.25-.69 6.95 6.22 11.15 8.29zm136.38-22.69a31.38 31.38 0 0 1-3.75 5.43l-1.73.69c-1.53 1.73-3.05 3.48-4.66 5.15l4.36-8q4-3.81 7.94-8a42.89 42.89 0 0 1-2.16 4.73zm32.23-42.27a1.56 1.56 0 0 0-.11-.57c.24.04.66-.54.11.57zm-207.32-1.82l-.08-.21c.11.09.23.09.08.21zm-.63-2.1a26.26 26.26 0 0 1-2.33-8c.77 2.72 1.53 5.38 2.33 7.98zm213.84-10.81c-.3-.57-1-.66-1.74-.71q.81-2.24 1.53-4.48.17 2.58.21 5.19zm-11.33-99.95a1.57 1.57 0 0 1-.55 0 7.44 7.44 0 0 1 .12 1.53c-.7-1.38-.7-2.07-1.4-3.45l.7.69c-1.4-2.07-.7-4.83-1.13-6.84.72 2.68 1.46 5.38 2.26 8.07z"
                                fill="#000000"></path>
                            <path
                                d="M235.52 312.23a2.39 2.39 0 0 0-.58-1.23c0 .55.06 1.09.58 1.23zM246.28 337.49c0-.13-.05-.24-.06-.32s.03.18.06.32zM246.31 337.72v-.23zM246.22 337.17v-.14zM36.71 450.11l1.85 3.76a21.36 21.36 0 0 1-1.41-4.16c-.15.21-.09 1-.44.4zM37.61 443.46c.55-.86-.72-3.46-2-6.51.07.19.14.36.2.56-1.28-.24.24 2.9 1.8 5.95zM34.36 433.33c-.52-.1.33 1.24 1 2.9-.36-.95-.71-1.93-1-2.9zM49.56 473.86c-.87-.3.8 1.57 2.08 2.65s2.11 1.44-.51-1.72c-.7-1.42-1.34.05-1.57-.93zM45.65 457.38c.42.81 1.07 1.62 1.53 2.4a8.17 8.17 0 0 0-1.53-2.4zM47.18 459.78c.17.34.33.69.49 1a4.24 4.24 0 0 0-.49-1zM48.83 463a12.58 12.58 0 0 1-1.16-2.15 1.8 1.8 0 0 1 .08.5c.57 1.07.99 1.78 1.08 1.65zM45.76 457.3a30.66 30.66 0 0 0-1.93-3.6 39.29 39.29 0 0 0 1.93 3.6zM91.28 500.94c-1.62-.07-3-1.45-5.11-1.45a7.56 7.56 0 0 0 5.46 2c.37-.06.15-.28-.35-.55zM21.14 252.97l1.16-2.19-.13-1.21-1.03 3.4zM22.52 258.92a6.51 6.51 0 0 1 .48-2.82l-1.66.79z"
                                fill="#000000"></path>
                        </g>
                    </svg></svg>
                <defs>
                    <filter id="colors5991433309">
                        <feColorMatrix type="matrix"
                            values="0 0 0 0 0.89453125  0 0 0 0 0.08984375  0 0 0 0 0.078125  0 0 0 1 0"
                            class="icon-fecolormatrix"></feColorMatrix>
                    </filter>
                    <filter id="colorsf8897946425">
                        <feColorMatrix type="matrix"
                            values="0 0 0 0 0.99609375  0 0 0 0 0.99609375  0 0 0 0 0.99609375  0 0 0 1 0"
                            class="icon-fecolormatrix"></feColorMatrix>
                    </filter>
                    <filter id="colorsb5862599521">
                        <feColorMatrix type="matrix" values="0 0 0 0 0  0 0 0 0 0  0 0 0 0 0  0 0 0 1 0"
                            class="icon-fecolormatrix"></feColorMatrix>
                    </filter>
                </defs>
            </g>
        </g>
        <g data-d="icon-text" hollow-target="textRect" transform="translate(9.668022155761719,6.9496917724609375)">
            <!---->
            <g data-d="text">
                <g data-gra="path-name" fill-rule="" class="tp-name iconsvg-namesvg">
                    <g transform="scale(1)">
                        <g>
                            <path
                                d="M77.34-77.67L77.34-77.67Q82.71-79.49 86.9-74.34L86.9-74.34Q90.23-67.89 91.09-62.3L91.09-62.3Q96.89-19.12 90.66-1.72L90.66-1.72Q89.7 1.93 86.26 4.3L86.26 4.3Q83.14 5.37 80.14 8.7L80.14 8.7Q74.66 12.68 73.05 5.59L73.05 5.59Q73.26 4.08 71.76 2.69L71.76 2.69Q69.07 3.01 64.24 1.72L64.24 1.72Q46.19 1.07 25.67 3.97L25.67 3.97 21.81 6.02Q19.55 5.91 17.83 1.18L17.83 1.18Q16.33-3.33 15.79-7.41L15.79-7.41Q13.64-37.28 16.65-55.11L16.65-55.11Q18.05-63.92 20.41-72.29L20.41-72.29Q21.38-77.02 24.6-75.3L24.6-75.3Q27.07-74.01 29.54-74.77L29.54-74.77 46.73-77.13Q64.56-78.53 73.91-76.81L73.91-76.81Q75.41-76.16 77.34-77.67ZM77.99-70.25L77.99-70.25Q76.27-74.12 72.08-70.68L72.08-70.68Q72.19-70.15 73.8-68.54L73.8-68.54Q77.67-63.59 73.05-62.09L73.05-62.09Q70.79-61.98 72.08-60.16L72.08-60.16Q74.23-56.72 70.04-54.14L70.04-54.14Q67.89-53.17 65.74-52.64L65.74-52.64Q61.02-52.42 61.02-48.77L61.02-48.77Q61.66-44.47 62.63-40.18L62.63-40.18Q62.84-37.92 64.78-37.28L64.78-37.28Q65.53-37.81 66.28-39.1L66.28-39.1Q67.03-45.44 70.47-48.77L70.47-48.77Q72.62-49.41 74.77-46.51L74.77-46.51Q76.38-44.69 75.09-40.18L75.09-40.18Q73.26-35.88 71.01-31.58L71.01-31.58Q68.54-27.29 68.32-25.14L68.32-25.14Q68-23.2 69.82-20.84L69.82-20.84Q70.9-18.69 72.72-16.54L72.72-16.54Q75.95-13.86 75.84-9.78L75.84-9.78Q75.3-8.06 72.19-7.95L72.19-7.95Q71.01-8.06 70.47-7.84L70.47-7.84Q69.93-7.3 72.19-4.73L72.19-4.73Q74.23-2.04 75.2-1.93L75.2-1.93Q78.2-1.72 80.03-6.66L80.03-6.66Q82.71-18.91 82.07-44.47L82.07-44.47Q81.32-58.87 77.99-70.25ZM60.8-70.68L58.44-70.68Q55.97-70.79 55.75-69.18L55.75-69.18Q58.65-66.92 59.08-64.67L59.08-64.67Q59.08-60.48 63.92-61.45L63.92-61.45Q67.25-61.45 68.43-62.73L68.43-62.73Q68.43-63.49 66.39-66.71L66.39-66.71Q65.53-71.54 60.8-70.68L60.8-70.68ZM47.91-69.39L47.91-69.39Q37.38-68 29.97-65.31L29.97-65.31Q26.64-63.06 26.32-61.55L26.32-61.55Q21.38-40.28 24.28-8.27L24.28-8.27Q24.81-3.97 29.22-5.16L29.22-5.16 42.11-6.55Q45.76-6.77 47.37-7.84L47.37-7.84Q49.84-11.6 52.74-15.47L52.74-15.47Q57.9-21.27 58.33-24.06L58.33-24.06Q58.33-25.24 57.26-28.36L57.26-28.36Q54.68-35.88 51.67-47.7L51.67-47.7Q50.38-49.31 47.37-48.34L47.37-48.34Q43.72-47.16 38.78-46.41L38.78-46.41Q32.01-45.12 30.51-51.13L30.51-51.13Q31.47-56.61 37.71-56.83L37.71-56.83Q42-57.79 46.3-58.33L46.3-58.33Q49.74-59.08 48.13-62.84L48.13-62.84Q47.91-64.45 48.55-66.06L48.55-66.06Q49.95-68.64 47.91-69.39ZM42.97-42.97L42.97-42.97Q45.65-45.01 48.02-41.36L48.02-41.36Q49.2-39.64 48.66-37.06L48.66-37.06Q47.91-31.58 42.86-26.43L42.86-26.43Q41.14-25.35 38.56-25.57L38.56-25.57Q37.49-25.46 36.42-24.92L36.42-24.92Q32.66-21.91 32.12-22.13L32.12-22.13Q28.25-25.78 27.07-34.59L27.07-34.59Q26.21-37.81 28.04-41.04L28.04-41.04Q29.43-43.4 31.69-41.46L31.69-41.46Q32.55-41.04 34.38-41.04L34.38-41.04Q36.52-41.79 38.67-41.79L38.67-41.79Q40.82-42.11 42.97-42.97ZM41.46-37.49L41.46-37.49Q39.42-38.46 34.8-35.45L34.8-35.45Q33.73-34.48 33.62-32.23L33.62-32.23Q34.59-26.64 39.53-30.94L39.53-30.94Q42.65-34.91 41.46-37.49ZM48.34-24.06L48.34-24.06Q52.42-25.35 52.64-24.6L52.64-24.6Q53.71-20.84 45.76-16.65L45.76-16.65Q38.78-13.43 33.52-9.78L33.52-9.78Q31.37-9.02 28.79-12.46L28.79-12.46Q26.53-14.93 29.11-16.54L29.11-16.54Q35.02-19.44 48.34-24.06ZM64.56-13.64L64.56-13.64Q63.16-18.15 58.44-14.07L58.44-14.07Q56.29-12.68 54.14-10.96L54.14-10.96Q51.99-9.35 51.78-8.81L51.78-8.81Q51.46-7.95 55.11-7.95L55.11-7.95Q58.76-8.7 66.39-8.06L66.39-8.06Q69.29-7.95 68.86-8.81L68.86-8.81Q68.54-9.45 67.35-10.63L67.35-10.63Q65.31-11.92 64.56-13.64Z"
                                transform="translate(-14.894166946411133, 78.14523315429688)"></path>
                        </g>
                        <!---->
                        <!---->
                        <!---->
                        <!---->
                        <!---->
                        <!---->
                        <g data-gra="path-name-1" fill="#E51714" transform="translate(0,91.27616119384766)">
                            <g transform="scale(1)">
                                <path
                                    d="M40.28-78.74L40.28-78.74Q46.94-85.83 51.03-78.31L51.03-78.31Q52.96-73.58 56.72-76.48L56.72-76.48Q60.59-79.17 63.16-78.85L63.16-78.85Q65.21-78.53 67.25-76.05L67.25-76.05Q71.65-70.9 67.14-67.78L67.14-67.78Q61.12-63.92 55.11-59.62L55.11-59.62Q52.96-57.26 53.28-56.83L53.28-56.83Q53.71-56.29 56.93-56.18L56.93-56.18Q62.41-55.97 64.56-56.61L64.56-56.61Q70.25-59.94 73.91-52.42L73.91-52.42Q75.73-44.04 68.64-35.23L68.64-35.23Q65.85-32.23 66.49-30.08L66.49-30.08Q67.25-28.36 64.67-27.07L64.67-27.07Q50.49-18.58 34.59-17.4L34.59-17.4Q32.55-17.83 31.37-14.82L31.37-14.82Q30.94-9.99 33.62-5.59L33.62-5.59Q38.24 0.32 46.3 0.32L46.3 0.32Q64.45 1.5 82.18-2.47L82.18-2.47Q89.05-2.9 90.45-9.67L90.45-9.67 91.42-15.04Q92.06-18.26 92.92-15.25L92.92-15.25Q93.99-9.13 98.18-6.02L98.18-6.02Q101.62-4.08 98.29-0.86L98.29-0.86Q97.32 0 96.14 2.15L96.14 2.15Q94.21 5.05 92.28 5.8L92.28 5.8Q75.41 11.49 50.38 10.85L50.38 10.85Q40.28 10.53 33.19 7.2L33.19 7.2Q27.82 3.97 26.43-0.54L26.43-0.54Q20.95-20.09 28.04-41.79L28.04-41.79Q27.82-42.43 26.43-43.51L26.43-43.51Q22.88-44.47 23.31-47.16L23.31-47.16Q24.06-48.88 26.64-49.74L26.64-49.74Q33.95-53.6 43.83-54.89L43.83-54.89Q46.73-54.89 48.02-57.04L48.02-57.04Q52.96-63.81 54.14-68.32L54.14-68.32Q53.5-70.36 48.66-70.58L48.66-70.58Q46.08-71.22 42.22-67.57L42.22-67.57Q28.25-55.86 20.73-52.21L20.73-52.21Q13.54-45.44 16.76-52.42L16.76-52.42Q25.67-66.49 40.28-78.74ZM59.62-51.13L59.62-51.13Q41.68-43.94 34.91-43.08L34.91-43.08Q32.33-42.54 31.9-42L31.9-42Q31.8-41.36 33.19-40.07L33.19-40.07Q35.88-38.46 35.56-35.56L35.56-35.56Q32.98-29.54 33.09-26.43L33.09-26.43Q35.13-24.92 41.14-26.86L41.14-26.86Q45.01-29.11 44.26-35.56L44.26-35.56Q42.86-39.75 44.04-41.79L44.04-41.79Q44.69-42.22 48.55-41.46L48.55-41.46Q53.28-38.99 50.7-33.95L50.7-33.95Q49.52-31.37 49.52-30.83L49.52-30.83Q49.95-30.19 50.38-30.19L50.38-30.19Q54.03-30.72 57.36-33.3L57.36-33.3Q62.41-40.5 64.13-47.59L64.13-47.59Q65.1-52.85 59.62-51.13Z"
                                    transform="translate(-15.763996124267578, 82.1806640625)"></path>
                            </g>
                        </g>
                    </g>
                </g>
                <!---->
            </g>
        </g>
    </g>
    <defs>
        <filter id="ac07dbe9-3bcb-42d0-b2fe-2e69f9396f82">
            <feColorMatrix type="matrix" values="0 0 0 0 0  0 0 0 0 0  0 0 0 0 0  0 0 0 1 0"></feColorMatrix>
        </filter>
        <filter id="a57bceed-441f-4232-baf0-ebf9b36d336b">
            <feColorMatrix type="matrix" values="0 0 0 0 0.99609375  0 0 0 0 0.99609375  0 0 0 0 0.99609375  0 0 0 1 0">
            </feColorMatrix>
        </filter>
    </defs>
    <mask id="9a8a3bec-e4ad-46e3-afe4-bd0908d83ec9">
        <g data-v-0dd9719b="" fill="#E51714" class="j-b-g-c iconbgsvg">
            <g data-d="container" transform="translate(0,0)">
                <g>
                    <rect fill="#E51714" fill-opacity="0" stroke-width="2" x="0" y="0" width="103.50000000000007"
                        height="202.27091250000015" class="image-rect" stroke="#000"></rect> <svg
                        filter="url(#a57bceed-441f-4232-baf0-ebf9b36d336b)" x="0" y="0" width="103.50000000000007"
                        height="202.27091250000015" filtersec="colorsf8897946425" class="image-svg-container primary"
                        style="overflow: visible;"><svg xmlns="http://www.w3.org/2000/svg"
                            viewBox="0.00421 0.00258 267.72397 523.21313" style="overflow: visible;">
                            <g transform="scale(1, 1) skewX(0)">
                                <path
                                    d="M119.38.84c1.9.35 1.26-.68 1.56-.81-3.23-.23-1.48 1.07-1.56.81zM88.3 4.46l.45-.46c-1.44.6-2.85 1.35-4.26 2 1.26-.49 2.51-1 3.81-1.54zM68.87 11.8c-3 1.85-5.59 3.7-7.55 4.83a191.6 191.6 0 0 0 17.17-9.4 21 21 0 0 0-9.62 4.57zM47.35 24.5c-.3 0-.3.66-.3.66a16.59 16.59 0 0 0 2.48-2.85zM42.16 30c-1.39 1.38-3.49 2.76-3.76 4.91.13.16.76-.38 1.7-1.15A4.7 4.7 0 0 0 42.16 30zM38.55 37.8l1.09-1.94c-.32.21-.64.64-1.09 1.94zM40.77 34c.09.62.34-.41 1.32-2.21-.82 1.35-1.68 2.65-2.45 4 .53-.24.88.04 1.13-1.79zM45.34 29.86c1.24-1.58 2.15-2.68 2.67-3.44s.67-1.12.49-1.12-.7.38-1.51 1.14A33.93 33.93 0 0 0 43.88 30c1.74-1.6 3.85-3.73 1.46-.14zM65.78 15.9c-1.29.76-1.91 1.49-3.05 1.55-1.09.67-2 1.27-1.8 1.43 1.67-.73 3.6-1.51 4.85-2.98zM26.33 56l-.19.07a.24.24 0 0 0 .19-.07zM26.27 59.86c1.56-3.22 1.88-4.32 1.71-4.57 1-.57 1.78-1.48.91-3.21-.7.69-.7 2.07-1.51 2.54A5.83 5.83 0 0 1 26.33 56a12.35 12.35 0 0 0 1.47-.58zM39.3 39.61l.1-.3c-.3.51-.59 1-.89 1.53.26-.41.49-.84.79-1.23zM39.4 39.31c1.21-2.12 2.34-4.34 3.46-6.56a24.07 24.07 0 0 0-3.46 6.56zM19.5 70c-.25 1.74-.49 3.47-.66 5.23l.34-2.23zM14.82 90.79a38.45 38.45 0 0 1 1.38-6c-2.84 1.34-1.79 3.73-1.38 6zM14.82 90.79c-.14 1-.23 2-.28 2.94a4.11 4.11 0 0 0 .28-2.94z"
                                    fill="#000000"></path>
                                <path
                                    d="M14.81 98.27c0-1.4-.18-2.92-.27-4.54a30.78 30.78 0 0 0 .27 4.54zM22.28 69c.21-.53.46-1.13.71-1.73-.28.24-1 .57-2.07 3zM20.85 72.75c.18-.48.62-1.64 1.48-3.83-.41 1.08-1.08 2.51-1.48 3.83zM23.17 66.79c-.07.16-.12.28-.18.44a.45.45 0 0 0 .18-.44zM32.39 53.16c.33-1.51-.49-.7-.49-1.57a8.44 8.44 0 0 0-.9 3.25 8.28 8.28 0 0 0 1.39-1.68z"
                                    fill="#000000"></path>
                                <path
                                    d="M31.9 51.59a6.23 6.23 0 0 0 .53-2.18 8 8 0 0 0-.53 2.18zM26.58 60l-1.67 5.33A7.48 7.48 0 0 0 26.58 60zM24.2 67.74l.71-2.45-.76 1.69.05.76zM16.48 90.09c0 1.58-.1 3.42-.23 5.1.3-2.11.85-4.18 1.1-6.16-.18-.53-.42-2.03-.87 1.06zM16.25 95.19a17.75 17.75 0 0 0-.19 2c.07-.58.14-1.28.19-2zM18.74 79.7c0 .15 0 .35-.08.5.14-.2.22-.47.08-.5zM16 123.38v.52c.26-.03 0-.73 0-.52zM17.57 88.63a19.09 19.09 0 0 0 .53-4.78c-.25 1.63-.46 3.36-.75 5.18.08.24.15.31.22-.4zM18.29 80.78a29.3 29.3 0 0 0-.19 3.07c.23-1.31.42-2.55.56-3.65a3.66 3.66 0 0 1-.37.58zM21.78 133.73c-3.7-4.94 1.9-10.54-3.25-13.36-3.28-1.41-1.76 4.91-1.16 8.42 1.32-2.1-.66-5.62.95-7 1.33 5.62-1 10.53 3.6 16.86-.14-2.1-.7-3.51-.93-5.54.21-.05.71 2.11.79.62zM15.75 113.36v.39a1.24 1.24 0 0 0 .11.36z"
                                    fill="#000000"></path>
                                <path
                                    d="M15.76 113.75c-.11-.62.2-1.21 0-1.8-.3 3.5-1.24 7 .23 11.22-.48-3.37-.09-6.1-.23-9.42zM17 101.21V99a5.17 5.17 0 0 0 0 2.21z"
                                    fill="#000000"></path>
                                <path
                                    d="M15.62 112.15a10.87 10.87 0 0 0 .18-6.24c0-.91 0-1.93.09-3.07.43 1.72.43 3.79 1.13 5.17 1.57-2.07.39-4.53 0-6.8v2c0-.69-.7-2.08-.7-2.77v-1.57c-.3 1.37-1.08 2.65-1.09 4a7.85 7.85 0 0 0-.44 2.92c.15-.78.31-1.64.46-2.54a3.57 3.57 0 0 0 .37 1.27z"
                                    fill="#000000"></path>
                                <path
                                    d="M16.32 97v1.91a4.11 4.11 0 0 0 0-1.91zM31.58 58.92c-.18.22-.22.16-.28.14-.18.63-.22.88.28-.14zM26 65.09a10.92 10.92 0 0 0 3.55-3C28.89 60.37 31 59.68 31 58.3v.7a4.1 4.1 0 0 0 .7-2.76 49.63 49.63 0 0 1-5.7 8.85zM20.4 86.59c1.07-4.34.4-3.67.22-4.41-.51 2.48-.13 5.27-1.08 8.07.47-1.4 1.06-2.1 1.54-3.5 0 0-.69 0-.68-.16zM14.7 123.25l1.47 5.12-.53-3.71-.94-1.41zM15.59 134.49l.63 2.9.18-2.25-.81-.65zM6.14 361.14c-.06.45-.11.93-.15 1.43a3.45 3.45 0 0 0 .15-1.43zM5.91 363.69c0-.39 0-.76.08-1.12-.48 1.69-1.71 3.66-1.1 5.24 1.86-1.36 1.58-2.73 1.02-4.12zM150.88 12.79a20.85 20.85 0 0 0-3.61-1.79c1.06.35 2.46 1.73 3.61 1.79zM21.27 167.24a2 2 0 0 1-.44-.94c.11.47.24.84.44.94zM17.29 175.22c.09-.41.17-1.21.34-2.61a26.19 26.19 0 0 0-.34 2.61zM17.18 172.94c.06-.71.11-1.27.16-1.8-.14-.3-.25-.09-.16 1.8zM17.13 175.66c0 .61 0 1.48-.08 2.91.05-1.19.14-2.29.24-3.35-.08.4-.13.56-.16.44zM240.23 239.88c.06-.16.11-.33.17-.5.33-2.3.12-1.29-.17.5zM24.6 423c-1.3-2.26-3.39-5-2.69-7.78-.7 1.38-.7 2.76-1.73 4.18zM17.25 154.29c-.2 0-.45.65-.56-.17l.37 4.26a19.58 19.58 0 0 1 .19-4.09zM16.69 154.12v-.45c-.03.18-.01.33 0 .45zM19.66 112.43c.06 3 .44 5.16.57 2.2.28-.41-.42-1.79-.57-2.2zM19.62 150.25c.78-.14.37-3.12 0-6.45v.58c-1.13-1.31-.53 2.31 0 5.87zM19.55 143c-.11-1-.24-2.08-.26-3.06-.48-.5-.01 1.24.26 3.06zM16.15 180.63c1.31 1.41-.17 3.5 1 4.87.15-.06.21-.85.27-2.9-1.49-.6 1.01-1.95-1.27-1.97zM22.1 148.39c-1.07.06-.48 1.47 0 2.91zM22.06 173.37c.83-1.78.68-3.88 0-6.39-.06 3.1-.3 6.45 0 6.39zM22.05 167a25.25 25.25 0 0 0-.27-4.13c.03.87.13 2.78.27 4.13zM22.71 160.56l.07-5a20.56 20.56 0 0 0-.07 5zM15.32 225.11c-.24 1.66-.52 3.3-.68 4.95.34.52.8-.8 1-2.63.01-1.2.25-3.05-.32-2.32zM21.52 212.61l-.11-1.68c-.53.52-1.98.76.11 1.68zM21.36 210.14l.05.79c.21-.2.29-.45-.05-.79zM20 225.84c-.3-.53.3-5.52-.89-1 .26.54-.39 7.16.89 1zM8 295.85l2.67.82c.78-1.67-.95-1.03-2.67-.82zM16.21 363.46c.17.74.44.72 1.13-.37 1.4-2.73-2.1-4.79-.39-7.5-1.95 3.41-.55 5.41-.74 7.87zM15.48 357.46a13 13 0 0 0 .28 1.9c-.07-.6-.16-1.24-.28-1.9zM132.56 3.74c-1.38-.55-2.76-1.16-4.16-1.65.89.46 1.76 1 2.63 1.51zM124.32 3.36c-.44-1.68-1.83-1.68-3.51-.79a10.89 10.89 0 0 1 3.51.79zM249.4 418.78c-.63 1.39-1.26 3-2 4.51a26.27 26.27 0 0 1 2-3.07c.6-.9.8-1.35 0-1.44zM247.45 423.29c-.18.35-.36.72-.53 1.11.18-.35.36-.73.53-1.11zM222 466.12l1.34-1.91c-.65.88-1.06 1.47-1.34 1.91zM210.34 478.28v.57c.4-.69.52-1.03 0-.57zM90.53 511.56c-.89-.53-2.2-1.13-4-2 1.29.7 2.65 1.32 4 2zM224.66 477.53c.9-1.21 1.18-1.81 1-1.91-.91 1.24-1.38 2-1 1.91zM38.5 465.9a15 15 0 0 1-1.5-2.31c.68 1.27 1 2.05 1.5 2.31zM251.14 215.89l.69-1.57c.17-.92.26-1.85-.69 1.57zM6.54 360.71a4.53 4.53 0 0 0 .46-1.13 6.72 6.72 0 0 0-.46-1.58zM14.29 418.13c-.24-.51-.49-1-.76-1.49a2 2 0 0 0 .76 1.49zM243.3 432.65c.5-.95 1-1.91 1.42-2.89a13.17 13.17 0 0 0-1.42 2.89zM265.58 368.62l.09.38a.74.74 0 0 0-.09-.38zM240.07 237.07c.26-1.08.53-2.16.8-3.23-.28 1.07-.54 2.16-.8 3.23zM234.24 274.41c0-1.13.07-2.26.16-3.38a5.74 5.74 0 0 0-.16 3.38zM235 286.19a9.87 9.87 0 0 0 .69 4.1 22 22 0 0 1-.69-4.1zM251.19 346.22l-.16-.49a2.34 2.34 0 0 0 .16.49zM15.55 237.2a3.88 3.88 0 0 0 0 2.41c.24.32.5.65.78 1a7 7 0 0 1-.78-3.41z"
                                    fill="#000000"></path>
                                <path
                                    d="M17 235.74a6.14 6.14 0 0 0-.7 3.45c.7-3.45 2.09-6.9.7-10.35 0 3-1.43 5.59-1.47 8.36a2.85 2.85 0 0 1 1.47-1.46zM18.41 214.34q.15-1.28.33-2.55a4 4 0 0 0-.33 2.55zM79.88 511.23h-2.1l.12.16a2.88 2.88 0 0 0 1.98-.16zM15.66 316.12a2.93 2.93 0 0 0 .66 1.79 15 15 0 0 1-.66-1.79zM15.62 315.14a5.12 5.12 0 0 0-.1.54c0 .14.09.29.14.44a9.07 9.07 0 0 1-.04-.98zM16.32 241.27l-.15.26.15.43zM258 174.29h.07c.11-.26.23-.5.34-.76a1 1 0 0 0-.41.76z"
                                    fill="#000000"></path>
                                <path
                                    d="M130.17 5.82h-1.4c7 9 18.16 13.12 27.94 18.64h-1.39c3.49.7 5.58 3.46 8.38 5.53h-.7c11.17 6.9 18.86 17.26 27.94 26.93v-1.39c1.39 1.39 2.79 3.46 4.19 4.84-1.4-2.07-3.49-3.45-4.19-6.22 8.38 11.74 19.55 20.72 27.24 32.46l-2.8-2.77c3.5 3.46 5.59 7.6 9.78 11-.7-1.38-2.09-2.76-2.79-4.14 15.36 18.64 37.72 36.59 37 62.83L258 152.2c2.6 6.43 2.17 13.47 2.1 20.55-.12-.05-.34 0-.7.16-.69.68 0 1.35-1.33 1.38-2.34 5.58-2.27 11.68-3.59 17.3a10 10 0 0 1 1.43-2.8c-1.36 9.41-7.35 17.51-9.6 26.85a74.07 74.07 0 0 0-5.07 19.41c.45-2.24 1.19-4.47 1.84-6.7-1.21 5.67-1.51 11.36-3.24 17.06a20.6 20.6 0 0 1 .19-3.52l-1.59 6.28a47.83 47.83 0 0 1 1.64-11.1c-1.59 6.46-3 12.92-3 19.39l-.7-.69a15 15 0 0 1-.7 5.52v-3.45c0 4.39-.88 8.79-1.24 13.19a11.39 11.39 0 0 0 .54-2.84v.69c0-.69.7-1.38.7-2.07.57 6.25-1.21 13-.69 19.38v-.74c1.4 4.84.7 9 2.1 13.81v-2.07c1.72 6.83 3.46 13.66 5.58 20.1-.21-.26-.44-.51-.69-.77a7.77 7.77 0 0 0 2.09 5.53l-1.4-1.38q4.2 10.35 8.39 20.71l-.7-.69c0 1.38 1.39 2.76 1.39 4.14-2.09-2.76-2.09-6.21-4.19-8.28 1.73 2.85 2.51 6.16 3.52 9.18a1.49 1.49 0 0 1 0-.21c.05.26.13.5.2.75a1 1 0 0 1 0 .1c.92 3.09 3.32 5.74 4 9.56l-1.4-1.38a24 24 0 0 1 2.79 6.21c-1.39-1.38-2.09-3.45-3.49-4.83 4.49 10.24 5.9 21 5.43 31.83l-.83-2.53c0 3.59.41 2.36.82 2.64-.49 11-2.95 22.18-6.12 33-.7 1.38-.7 2.76-2.79 2.07-1.4 6.22-4.19 11-7.68 15.88a14.85 14.85 0 0 1 3.49-5.52 18 18 0 0 0-3.49 4.14 43.64 43.64 0 0 1 1.37-4.7c-2.67 5.07-6 9.79-8.43 14.85-1 1.79-1.53 3.17-1.07 3.73-.85.89-1.76 1.73-2.63 2.59.64-.82.6-1.05 1.24-1.86-2.65 2.44-3 3.79-3.48 5.4a13.89 13.89 0 0 1-1.05 2.8 20.33 20.33 0 0 1-3 4.13c-2.25 2.29-4 3.69-2.85 1.83-.67 1-1.37 1.94-2.08 2.88s-1.41 1.92-2.14 2.85c-1.19 1.18-1.42.94-.69 0-2.2 2.41-4.44 4.79-6.78 7.07v-.11c-.4.68-1.12 1.75-1.88 2.82s-1.6 2.09-2.14 2.77c-2.33 1.53.84-1.14.07-.94-1.32 1.52-2.74 2.94-4.12 4.41-2.38 1 1.06-2.66 4.18-5.34a8.39 8.39 0 0 0-5.19 3.26c-1.36 1.52-3.28 3.73-8.63 6.55 1.47-1.15 2.86-2.4 4.29-3.59-3.85.88-7 3.94-12.81 6.39a22.64 22.64 0 0 0 2.43-.8c1.1-.41 2.4-.84 3.47-1.19 2.14-.7 3.53-.84 1.08 1.29-.8.45-1.75.94-2.79 1.65-.52.35-1.07.75-1.66 1.21s-1.23 1-1.9 1.52c-.28-.42-1.11-.14-2.32.53s-2.85 1.65-4.71 2.65l-.37-1.3a15.85 15.85 0 0 0-3.33 2.55 16.69 16.69 0 0 1-2.09 2c-4.71 2-6.1 1.38-7.52 1-3.78 1.34-2.35 1.23-1 1.24.65 0 1.26 0 1.16.29s-.29.32-.78.59a16.33 16.33 0 0 1-2.4 1c-1.65.43-3.14.9-4.61 1.3-.73.21-1.45.44-2.16.68l-2.17.66-2.21.74-2.36.72c-1.62.54-3.39 1-5.36 1.56-4.79.23.7-.9-1.05-1-1.33.53-2.67 1.1-4 1.6-1 .08-.74-.28-.59-.46-1.74.38-1.79.72-2.09 1.07s-.85.76-3.67 1.08c-.72.79-3.68.39-7.26-.15-.89-.15-1.82-.29-2.78-.41s-1.91-.3-2.88-.39a24.82 24.82 0 0 0-5.64-.06c-.83-.29-.6-.48-.22-.64s.91-.37.68-.65h-3.11c-.9 0-1.65 0-2.32-.09-1.34-.08-2.31-.14-3.24-.18s-1.79-.12-2.94-.16l-2-.08-2.61-.19-1.57-.63-1.7-.78c-1-.48-2.07-.9-3.07-1.41 2.18 1.23 1.72 1.63 0 1.66a30.66 30.66 0 0 1-3.41-.32 15.89 15.89 0 0 1-4.33-.95c-.9-1.32-2.21-.71-3.21-.59 1 .24 2.13.55 3.35.78 0-.07-.09-.11-.13-.17 1.37.7 2.74 2 4.11 2.71-2.74-1.35-6.83 0-9-3.29-.84-.21-1.51-.76-1.51-1.54 0-1.38 2.09-1.38 2.79-.69 2.1 1.38 4.89 3.45 7 1.38-.7 0-2.1-.69-2.8-.69h1.4c-12.57-8.29-26.54-13.12-37-24.17 4.89-2.76 8.38 6.22 14 9.67 0-.69-.7-1.38-1.4-2.07H61c-4.89-3.45-9.08-6.9-11.17-12.43l-.7.69c-4.19-2.07-4.89-7.59-8.38-10.35 3.49 0 2.79 2.76 4.19 4.83 0-1.38 0-3.45-1.4-4.14-5.59-3.46-7.68-9-8.38-14.5v.69c-4.89-9.67-7-20.72-12.57-29.69a4.24 4.24 0 0 1 2.79.69c-2.79-5.53-9.78-9.67-9.08-15.19.7-2.07 4.19-2.76 5.59 1.38-.7-3.45-2.1-6.91-2.8-10.36a6.14 6.14 0 0 0-.7 3.45c-2.09-5.52 0-11.73-4.19-16.57H17c-3.49-6.21-1.4-14.5-.7-21.4a5.51 5.51 0 0 0-.49 1.39c-.21-5.67-4.21-10.52-3-15.89 0-.69 2.09 4.83 1.39-2.07-.69-8.29-6.28-16.57-6.28-25.55a66.16 66.16 0 0 1 7.68 19.33c2.1-2.07 1.4-4.83 1.4-6.9.7 1.38.7 3.45 1.39 4.83-2.09-6.9 1.4-14.5-2.79-20.71 0 4.14 2.1 8.29 1.4 13.12-2.8-4.83-5.59-11.05-3.49-16.57l2.09 2.07c1.31-2.58-.44-5.17-.1-7.75-1.52-5.47.1-10.94.1-16.42-2.09 2.77-4.19 5.53-7 2.77-3.5-2.77-2.8-9.67 2.09-12.43.7 2.07 2.1 2.07 3.49 2.07 0-.14-.06-.29-.09-.43.19-.22.3-.9.28-2.4a11.19 11.19 0 0 1-.34 2.11c-.72-3.29-1.85-7.11-.54-10.33-.7.69-.7 2.07-1.4 2.76-3.47-13.71-3.49-29.46 4-41.85a19.6 19.6 0 0 1-.63-1.92c-4-5.43-3.29-12.51-1.32-18.37l.7.69c3.49-8.28-1.39-18 4.19-25.54 2.1 5.52-1.39 9.66-1.39 15.19.69-1.38.69-3.46 1.39-4.84a3.6 3.6 0 0 1 .34.53c1.75-10.09 4.29-20.27 3.16-30.91-2.1 1.38 1.39 2.77-.7 4.15a8.68 8.68 0 0 1-.7-4.15v1.38c-.69-5.42-4.05-11.51-.2-17a37.07 37.07 0 0 0-.5-7.19 8.64 8.64 0 0 1-.7 4.14c-.7-6.21-2.79-11.74-2.09-17.95-1.4 1.38-1.4 4.14-.7 5.52 2.79 9-.7 18.65.7 27.62 0-1 .67-1.26.84-1.82.72 4.44 1.86 8.35.55 12.87a1 1 0 0 0-.44-.79c.94 2.56-.36 5.08-1.65 7a4.1 4.1 0 0 0-.7-2.76c-1.7 16.77-5.45 33-8.92 49.47A23 23 0 0 0 6.5 240c.15-.37.31-.73.48-1.09l-.57 2.76c0-.57.09-1.13.09-1.67a13.71 13.71 0 0 0-1.44 7c.23-.56.42-1.12.59-1.68-1.57 7.86-3 15.79-4 23.86-1.54 2-1.78 6.36-1.59 11.05.19 15.58 9.27 30.77 5.78 46.65v-3.45c-.7 11.05 2.1 22.78 1.4 33.83l-.7-.69a4.33 4.33 0 0 1 .41 3c.4 3.08-1 6.49-.41 9.42 0-.69.7-.69.7-1.38 1.4 15.19 1.4 31.76 7.68 45.57 0 1.38.7 3.45 0 4.83a.48.48 0 0 1-.63.11c2.18 4.57 3 10 5.52 14.39h-.7c5.59 20 13.27 39.36 25.15 56.62 0-.69.7-.69.7-1.38 1.39 3.45 4.89 5.52 6.28 9h-.7c4.89 4.14 9.08 9 14.67 11.74h-1.39a3.85 3.85 0 0 1 3.49 2.07c-.7 0-2.1-.69-2.8-.69 2.8 1.38 6.29 3.45 8.39 2.76 4.88-1.38 7.68 4.14 12.6 2.87.68.52 1.62 1.13 1.7 1.4s-.72.25-3.47-.67a101.48 101.48 0 0 0 10.64 3.69c1.12.29 2.22.57 3.25.81s2 .38 2.82.51a15.27 15.27 0 0 0 2 .19c.51 0 .83-.1.9-.26a17.22 17.22 0 0 0 5.35.83l2.43.36c.72.11 1.38.16 2 .24 1.2.13 2.18.26 3.16.34 2 .13 3.93.31 7.52.27l-2-.25a9.11 9.11 0 0 1 4.76-.77l3.08.13c1.15 0 2.42 0 3.85-.17l-.15.18a53.55 53.55 0 0 0 6.69-.26 21.39 21.39 0 0 0 2.73-.48c.69-.15 1.37-.34 2.69-.53.66-.1 1.49-.18 2.56-.32s2.37-.31 4-.5l-.93-.82c.18-.57 1-1 2.18-1.27s2.84-.5 4.65-.82a37.46 37.46 0 0 0 11.47-3.24l-2.75.45c1.79-1 4.69-1.48 7.7-1.88 1.49-.24 3-.44 4.41-.7a19.67 19.67 0 0 0 3.59-1c.91-.26-1.15.93-2.23 1.64a24.28 24.28 0 0 0 4.6-2c.65-.45.63-.67.5-.9-.26-.47-.88-.89 2.55-3.06 1.66-.19-.74 2.54 4.07-.22 1.32-.5 4.4-3.14 7.85-6.18s7.21-6.55 10.48-8.47c-1.62.65-3.2 1.27-.6-1.44a46.8 46.8 0 0 1 3.83-3.1c1.43-1.12 3-2.28 4.47-3.49 3-2.43 5.67-5.05 6.79-7.53.6-.44.89-.55 1-.48 1.33-1.76 3.54-4.55 5.48-7.26 1-1.36 1.88-2.69 2.6-3.85a16.68 16.68 0 0 0 1.44-2.81c2.63-.52 6.38-6.23 9.46-11.66 7.06-11.31 16.14-21.66 18.24-34.78v.63c4.84-15.05 6.93-32.8 2.22-47.9.14.21.36.35.48.57-3.5-15-9-28.73-16-42.43-1.4 1.38 2.79 2.07.7 4.14a3.57 3.57 0 0 0-1.4-2.76v.69c-.7-2.07-2.09-4.14-2.09-6.9 1.39 0 0 2.07 1.39 2.07-8.38-25.55-11.87-53.17-4.89-79.4-.7.69-.7 2.07-1.39 2.76.63-2.52.71-5.61 2.3-8.23.87-3.47 1.52-6.75 2.59-10.41a15 15 0 0 1-.7 5.52c.7-1.38.7-3.45 1.39-4.83v.69c0-8.07 3.41-15.18 7-22.13-.64-2 1.27-4.64.76-6.67 6.7-16.78 12.45-34.78 9.78-52.72 0 .69-.7 1.38-.7 2.07 0-9.67 0-19.34-6.29-27.62a2.4 2.4 0 0 0-.7 1.38c-5.59-13.12-16.06-23.48-25.14-35.21 0 .69 0 1.38-.7 1.38-2.8-5.53-7-9-11.18-13.81 0 .69.7.69.7 1.38-20.99-23.48-42.63-46.26-68.47-64.9l1.4 1.38c-9.78-1.38-16.77-10.36-27.24-9 1.39.02 2.09.71 3.49.71zM10.73 396.22a1.2 1.2 0 0 0 .41.36c-.21.19-.2 1.04-.41-.36zM72.75 505a7 7 0 0 1 2 1 25.06 25.06 0 0 1 2.37 1.67 18.93 18.93 0 0 1-4.37-2.67zm121.42-12.12c-.78.5-1.76.91-3 1.55.59-.54 1.44-1.4 2.3-2.14a6.2 6.2 0 0 1 2.36-1.53 4.19 4.19 0 0 1-1.66 2.1zm52.1-277.06c-.05.2-.11.4-.15.61a1.52 1.52 0 0 1 .15-.63z"
                                    fill="#000000"></path>
                                <path
                                    d="M21.21 160.48c-.07.1-.13.2-.2.29v.37c.06-.21.12-.43.2-.66zM18.67 183.17a5.05 5.05 0 0 0-.26-.59.8.8 0 0 0 .26.59zM254.51 207.36c.69-1.36 1.4-2.71 2.08-4.07-.68 1.36-2.04 2.71-2.08 4.07zM254.51 207.36s0 .03 0 0zM244.72 237.81a8 8 0 0 0-.49.75c-.28 1.11-.57 2.23-.91 3.4.68-1.38.68-2.77 1.4-4.15zM258.4 173.53a.82.82 0 0 0 .29-.62c-.11.21-.19.42-.29.62zM253 196a17.81 17.81 0 0 1-1.3 2.43A9.78 9.78 0 0 0 253 196zM21 161.14a15.74 15.74 0 0 0-.5 4.87 38.47 38.47 0 0 0 .5-4.87zM240 241.89l.51-2a12.35 12.35 0 0 0-.51 2zM254.47 191.59c-.53 1.45-.91 3-1.47 4.44a24.85 24.85 0 0 0 1.47-4.44zM19.45 207.27c-.26 1.51-.5 3-.71 4.52.61-1.49 1.57-2.89.71-4.52zM240.87 233.84c.35-1.44.71-2.87 1-4.3-.3 1.46-.65 2.86-1 4.3zM235.52 291.15c0-.26-.08-.49-.11-.74.03.28.07.53.11.74zM217.1 471.89l.67-.73a8 8 0 0 0-.67.73zM86 509.82a1.11 1.11 0 0 1 .45.76c.69.07.77-.11-.45-.76zM180.7 498.56a18.53 18.53 0 0 0 2.09-1.1c-1.08.38-2.19.71-3.3 1l-.12.44a3.59 3.59 0 0 0 1.33-.34zM224.56 461.05l-.67.77 2.17-.71-1.5-.06zM20.76 260.12c.25-1.51-.82-1-1-1.19-.03 2.54 1.24 1.13 1 1.19zM22.73 288.39l-.67-3.27-.42-.42 1.09 3.69zM22.88 309.23c1.52-2.48-.63-8.75-.13-13.12 2.12-1.2-.08-1.77-1.06-2.57.36 5.23 1.49 11.94 1.19 15.69zM20.12 323.08c0-.28-.14-1.15-.28-3.35-.07.31-.1.4-.15.58v2.55c.25-.37.38.02.43.22zM20.12 323.08c0 .17 0 .11 0 0zM20.11 332.51c-.18-1.15-.37-2.29-.54-3.43-.38.8-.43 4-.69 2.83.27 3.61.63 2.78 1.23.6zM21.19 335.67c-.08-.6-.13-1.2-.2-1.8a2.13 2.13 0 0 0 .2 1.8z"
                                    fill="#000000"></path>
                                <path
                                    d="M20.83 332.12c.46.23 0-.46-.3-2l.46 3.79c.25-.6.75-.74-.16-1.79zM20.77 327.85c.33-2 .5-4.56 1.08-1.17-.15-3.29-.43-4.66-.72-4.37s-.51 2.23-.36 5.54zM19 355.47c.31.16.87-1.48 1.28-1.86l-.28-2.68c-.28 1.47-.53 4.24-1 4.54z"
                                    fill="#000000"></path>
                                <path
                                    d="M20.27 353.61c.14 1.35.28 2.7.44 4.05.12-3.74-.07-4.37-.44-4.05zM22.86 336c-.38-2.07-.71-4.14-1.11-6.2.4 2.47.72 5 1.11 7.44zM18.89 372.76l.27 1a4.23 4.23 0 0 0-.27-1zM18.06 369.65a8.39 8.39 0 0 0 .83 3.11c-.28-1.03-.55-2.07-.83-3.11zM19.25 390.7a4.8 4.8 0 0 0 .48 1.13 10.36 10.36 0 0 1-.48-1.13zM18 384.3a42.29 42.29 0 0 0 1.3 6.4c-.69-2.52.73-5.37 0-7.49-.75-1.68-.86 2.98-1.3 1.09zM20.89 396c-.32-1.23-.75-2.47-1.17-3.82a21.4 21.4 0 0 0 1.17 3.82zM19.53 368.62a21.63 21.63 0 0 0 .9-3.67 8.09 8.09 0 0 0-.9 3.67zM20.42 366.59a5.21 5.21 0 0 0-.09 3.78c.01-.48.04-1.62.09-3.78zM21.86 346.61c.41 2.29.79 7.19 1.69 2.15-.55-1.58-1.05 1.29-1.69-2.15zM21.05 357.47c.17 1.55.3 3.11.5 4.66.07-1.51.2-3 .29-4.54-.23.15-.58 1.04-.79-.12z"
                                    fill="#000000"></path>
                                <path
                                    d="M21.55 362.13l-.1 1.7.33.45-.23-2.15zM21.3 385.69c-1.49 2.64.61 5.4.61 8.16a16.7 16.7 0 0 0-.31-4q-.17-2.12-.3-4.16zM27.73 419.87l-.13-.51c-.11.04-.11.73.13.51z"
                                    fill="#000000"></path>
                                <path
                                    d="M21.42 385.17a14 14 0 0 0-.55-4.34c.13 1.51.31 3.11.43 4.86.13.13.21.13.12-.52zM22.54 403c-.05-1.18-.15-2.49-.26-3.85-.06 1.2-.03 3.58.26 3.85zM20.25 378.31a19.36 19.36 0 0 0 .62 2.52c-.12-1.22-.25-2.34-.42-3.29a6.12 6.12 0 0 1-.2.77zM26.28 414.43l-1-4c.46 3 0 6.21 2.23 9-.71-1.43-.71-3.43-1.23-5zM25.26 410.4v-.17zM25 409.34c.07.29.14.59.19.89l.17.2a2.42 2.42 0 0 0-.36-1.09zM25 409.34a10.17 10.17 0 0 0-.31-1 2.12 2.12 0 0 0 .31 1z"
                                    fill="#000000"></path>
                                <path
                                    d="M25.21 410.2l-.19-.71c-.19.16-.02.51.19.71zM23.33 402.07c.41 2.15.89 4.38 1.37 6.28-.46-2.26-.91-4.22-1.37-6.28zM22.82 399.23c1.09 1.19 2.37 5.78 2.64 2.45-.76-3-.76-5.06-2.85-7.13 1.39 1.38.69 3.45.69 4.83-.69-2.07-.69-3.45-1.39-5.53-.53 1.57.53 3.52.79 5.27.21 1 .42 2 .63 2.95-.19-.97-.33-1.93-.51-2.84z"
                                    fill="#000000"></path>
                                <path
                                    d="M22.61 400.76a3.59 3.59 0 0 0 .09-1.64l-.09-.43zM23.75 383.81l-.12 1a3.83 3.83 0 0 0 .12-1zM24.12 380.67c-1.46-.5.59-3.23-1.49-3.23-.58 2.37 1.09 4.24 1.12 6.37.11-1.05.25-2.09.37-3.14zM26.5 420.43l2.45 3.85-1.34-3.29-1.11-.56zM29.93 431.17l1.27 2.38c-.2-1.72.49-3.1-1.27-2.38zM228.55 453.93c1-.88 1.55-1.52 1.06-1.62l-1.35.29a25.49 25.49 0 0 1-3.55 4.39c1.29-1.08 2.82-2.18 3.84-3.06zM94.78 507.05a40.32 40.32 0 0 0 3.79 1.47c.58.19 1.14.38 1.67.54l1.58.41c-3.4-1.3-5.92-2.85-7.04-2.42z"
                                    fill="#000000"></path>
                                <path
                                    d="M105.87 510.69c.72.15 1.45.26 2.19.34a16.74 16.74 0 0 0 2.24 0c-.51-.17-1-.28-1.53-.44a43.64 43.64 0 0 1-7-1.13 23.34 23.34 0 0 0 4.1 1.23zM44.6 457.81c.28.34.54.56.72.46a1 1 0 0 1-.72-.46zM46.68 468.94c-.17-.44-.53-1.22-1.18-2.56.32.78.72 1.62 1.18 2.56zM48.43 471.94a30.21 30.21 0 0 1-1.75-3c.17.4.22.59.14.52.33.54.81 1.27 1.61 2.48zM30.63 88l.18-.27a1.55 1.55 0 0 0-.18.27zM246.51 338.89c-.07-.4-.12-.74-.17-1zM246.6 339.4l-.09-.51zM246.64 339.64v-.24zM246.75 340.31l-.11-.67c.03.21.07.43.11.67zM246.78 340.51v-.2zM246.82 340.69v-.18zM76.65 23.42l-1.25.36-.31.36 1.28-.52zM241.2 323.51c.22.39.47.8.73 1.3 0-.55-.02-1.1-.73-1.3zM94.11 17.13a22.65 22.65 0 0 1 3.23-.95 2.48 2.48 0 0 0-3.23.95z"
                                    fill="#000000"></path>
                                <path
                                    d="M241.76 323.38c.06.24.12.49.17.74a2.41 2.41 0 0 0-.17-.74zM235.42 305.18c.08.33.14.66.22 1a3.74 3.74 0 0 0-.22-1zM39.55 441.31a2.61 2.61 0 0 0 .38.7l-.18-.36zM25.58 232.3a1.68 1.68 0 0 0-.18.68zM246.34 337.89v-.17z"
                                    fill="#000000"></path>
                                <path
                                    d="M38.67 70.72c-.7 1.39-.7 3.46-1.4 4.84l-.7-.69C31.69 82.46 31 90.75 30.29 99l.7-.69c-5.59 18.64 0 38 .45 57.62.22-.61.55-1.53.77.3.86 25.39.18 51.38-6.63 76a3.83 3.83 0 0 0 .52-1.39 6.14 6.14 0 0 1-.7 3.45.77.77 0 0 0 .5-.17 22 22 0 0 0-.37 2.86c0-.7.23-1.8.4-2.88.25-.21.41-.5.87-.5-1.4 6.91-4.19 13.81-2.1 20.71v-2.76l.7.69a9.36 9.36 0 0 0 2.09-2.76c-.48 19.07-1.57 38.3-2.3 57.56a3 3 0 0 0-.83-1.53c.29 1.06-.34 4.92.17 4.7a8 8 0 0 0 .61-1.63c-.52 14.08-.83 28.18-.57 42.22h-.21c-.6 3.39-.46 6.8-1.68 10.2 1-2.72 2.65-5.44 1.7-7.71a2.08 2.08 0 0 1 .22-.8c.46 20.61 2.19 41.12 6.39 61.33-.7 0-1.4-.69-2.1-.69-2.79 4.14 0 6.21 1.4 10.35-.7-2.76-.7-5.52-1.4-8.28 2.8 2.76 1.4 6.9 3.49 9.67 4 5.23 4.19 11.08 7.17 16.38 0-.1-.08-.2-.11-.3l.31.64.32.54a1.1 1.1 0 0 1-.14-.18c4.25 8.91 7.62 18.29 12.71 27.1l-2.79-2.76c0 .69.69.69.69 1.38-4.19-4.83-8.38-9-8.38-15.88 0 2.07 1.4 4.15 2.1 6.22-1.4-4.15-2.1-9-4.89-12.43a11.59 11.59 0 0 0 .7 4.83c-2.8-4.83-5.59-9.66-7-15.19.7 9.67 7 18 9.78 27.62v-.69c1 1 .93 2.32 1.57 3.26a8.25 8.25 0 0 0 1 1.6c-.24-.45-.42-.83-.6-1.2a2.36 2.36 0 0 0 .86.48c0-.69-.69-2.07-.69-2.76A66.45 66.45 0 0 1 52.27 474h-.33c1.4 2.07 4.89 4.14 4.19 6.9-.7.69-1.39-.69-2.09-1.38 9.08 13.81 23.74 21.4 38.66 26.59 5.15 1.48 10.48 2.81 16.07 4.54 1.71.11 3.44.29 5.46.39s4.31.31 7.15.57l1.09.83c1.11-.06 2.48 0 4 0s3.06.08 4.56 0l2.18-.05c.69 0 1.33-.1 1.91-.17a7.4 7.4 0 0 0 2.5-.57c2.49.76 7.91.14 13.48-1.41s11.24-3.85 14.89-5.14l-.14-1.08a79.12 79.12 0 0 0 14.77-8l-.83-.61a37 37 0 0 1 3.92-2.61c1.45-.94 3.11-1.83 4.8-2.87a78.25 78.25 0 0 0 10.45-7.24c-.2.68-2 2-3.39 2.79 4.81-2.39 8.78-6.35 12.33-10.4s6.74-8.21 10.43-11.23a20.18 20.18 0 0 1 3.69-4.33 3 3 0 0 0-.33.48c.16-.18.38-.46.61-.74.78-.7 1.61-1.4 2.45-2.22a26.27 26.27 0 0 0-2.12 1.82 68.19 68.19 0 0 0 4.18-5.89l1.49-.32.35-.52c1.87-1.9.87-2-.57-1.29 10.39-12.06 13.89-26.56 21.57-40.36 0 .69.7 1.38.7 2.07 0-4.84 1.39-9.67 1.39-14.5l.7.69c3.5-19.33-1.39-38-5.58-58-2.8-5.52-2.8-11.74-6.29-17.26a2.45 2.45 0 0 1 .67.08 4 4 0 0 1-.67-2.15 5.69 5.69 0 0 1 1.23 2c-1.61-7.22-6.82-12.63-6.82-20a8.06 8.06 0 0 0 .48 1.77 159.29 159.29 0 0 1-4-35.6v-9l.7.69c.7-6.22.7-12.43 2.79-18l-.7.69c0-6.22 3.49-11.74 4.19-17.95a4.1 4.1 0 0 0-.7 2.76c-.61-5.46 3.63-9.33 5.62-13.93v.81c.11-.55.24-1.09.35-1.64.13-.37.25-.74.35-1.12a1 1 0 0 0-.15.19c2.21-10.1 5.9-19.7 7.83-29.88l-1.39 1.38a63.42 63.42 0 0 0 3.65-18.6v-.4c1.2-36.57-31.33-66.21-54.65-92.81.7 0 .7.69 1.4.69-10.51-10.33-19.59-23.46-33.56-30.35 0 2.07 3.49 1.38 3.49 3.45-.7 0-2.09-.69-2.79-.69 0 .69.7.69.7 1.38-2.1-2.07-4.19-3.45-5.59-6.21l2.09 2.07a75.89 75.89 0 0 0-29.42-21.49 73.58 73.58 0 0 0-36.23-5.44c.7.69 1.39.69 2.09 1.38-2.79-.69-4.89 1.38-7.68 0a4.45 4.45 0 0 1 .26-.43 45.3 45.3 0 0 1-7.94 2.5c.69-1.38 3.49-.69 3.49-2.76-1.4.69-2.1 1.38-3.49 1.38h.69c-3.28 2.53-6.94 3.92-10.49 5.37-1.66 1.12-1.64 1-1.28.52a27.92 27.92 0 0 0-7.78 4.47 4.23 4.23 0 0 0 2.79-.69 18.47 18.47 0 0 1-4.19 3.45c.7 0 1.4-.69 2.1-.69-7.69 4.49-13.62 10.87-18.51 18.12s-8.73 15.37-12.21 23.31zm98.61 435.48a27.15 27.15 0 0 1-3.79 1c.21-.31-.52-.61-1.08-.82 2-.15 4.08-.36 6.1-.64zm37-9.19l-2.07.74c-1.12.36-2.57.81-4.07 1.27s-3.09.82-4.45 1.1-2.51.46-3.16.51a1.59 1.59 0 0 1-.91-.18c2.35-.85 4.68-1.8 7-2.82l.79 1.37c.06-.6.11-1.2.16-1.8 2.23-1 4.44-2.11 6.63-3.28a2.81 2.81 0 0 1 .04 3.08zM72.9 491.9l-3.5-3.45a25.09 25.09 0 0 1 7 4.83L75 491.9c8.38 4.83 16.76 9.66 25.84 11.74a16.15 16.15 0 0 0-2.46.11 41.14 41.14 0 0 1-12-2.27c-5.07-4.06-10.66-6.82-16.95-9.58-3.49-1.38-7-3.45-7.68-8.29 6.25-.69 6.95 6.22 11.15 8.29zm136.38-22.69a31.38 31.38 0 0 1-3.75 5.43l-1.73.69c-1.53 1.73-3.05 3.48-4.66 5.15l4.36-8q4-3.81 7.94-8a42.89 42.89 0 0 1-2.16 4.73zm32.23-42.27a1.56 1.56 0 0 0-.11-.57c.24.04.66-.54.11.57zm-207.32-1.82l-.08-.21c.11.09.23.09.08.21zm-.63-2.1a26.26 26.26 0 0 1-2.33-8c.77 2.72 1.53 5.38 2.33 7.98zm213.84-10.81c-.3-.57-1-.66-1.74-.71q.81-2.24 1.53-4.48.17 2.58.21 5.19zm-11.33-99.95a1.57 1.57 0 0 1-.55 0 7.44 7.44 0 0 1 .12 1.53c-.7-1.38-.7-2.07-1.4-3.45l.7.69c-1.4-2.07-.7-4.83-1.13-6.84.72 2.68 1.46 5.38 2.26 8.07z"
                                    fill="#000000"></path>
                                <path
                                    d="M235.52 312.23a2.39 2.39 0 0 0-.58-1.23c0 .55.06 1.09.58 1.23zM246.28 337.49c0-.13-.05-.24-.06-.32s.03.18.06.32zM246.31 337.72v-.23zM246.22 337.17v-.14zM36.71 450.11l1.85 3.76a21.36 21.36 0 0 1-1.41-4.16c-.15.21-.09 1-.44.4zM37.61 443.46c.55-.86-.72-3.46-2-6.51.07.19.14.36.2.56-1.28-.24.24 2.9 1.8 5.95zM34.36 433.33c-.52-.1.33 1.24 1 2.9-.36-.95-.71-1.93-1-2.9zM49.56 473.86c-.87-.3.8 1.57 2.08 2.65s2.11 1.44-.51-1.72c-.7-1.42-1.34.05-1.57-.93zM45.65 457.38c.42.81 1.07 1.62 1.53 2.4a8.17 8.17 0 0 0-1.53-2.4zM47.18 459.78c.17.34.33.69.49 1a4.24 4.24 0 0 0-.49-1zM48.83 463a12.58 12.58 0 0 1-1.16-2.15 1.8 1.8 0 0 1 .08.5c.57 1.07.99 1.78 1.08 1.65zM45.76 457.3a30.66 30.66 0 0 0-1.93-3.6 39.29 39.29 0 0 0 1.93 3.6zM91.28 500.94c-1.62-.07-3-1.45-5.11-1.45a7.56 7.56 0 0 0 5.46 2c.37-.06.15-.28-.35-.55zM21.14 252.97l1.16-2.19-.13-1.21-1.03 3.4zM22.52 258.92a6.51 6.51 0 0 1 .48-2.82l-1.66.79z"
                                    fill="#000000"></path>
                            </g>
                        </svg></svg>
                    <defs>
                        <filter id="colors5991433309">
                            <feColorMatrix type="matrix"
                                values="0 0 0 0 0.89453125  0 0 0 0 0.08984375  0 0 0 0 0.078125  0 0 0 1 0"
                                class="icon-fecolormatrix"></feColorMatrix>
                        </filter>
                        <filter id="colorsf8897946425">
                            <feColorMatrix type="matrix"
                                values="0 0 0 0 0.99609375  0 0 0 0 0.99609375  0 0 0 0 0.99609375  0 0 0 1 0"
                                class="icon-fecolormatrix"></feColorMatrix>
                        </filter>
                        <filter id="colorsb5862599521">
                            <feColorMatrix type="matrix" values="0 0 0 0 0  0 0 0 0 0  0 0 0 0 0  0 0 0 1 0"
                                class="icon-fecolormatrix"></feColorMatrix>
                        </filter>
                    </defs>
                </g>
            </g>
            <g data-d="icon-text" hollow-target="textRect" transform="translate(9.668022155761719,6.9496917724609375)"
                filter="url(#ac07dbe9-3bcb-42d0-b2fe-2e69f9396f82)">
                <!---->
                <g data-d="text">
                    <g data-gra="path-name" fill-rule="" class="tp-name iconsvg-namesvg">
                        <g transform="scale(1)">
                            <g>
                                <path
                                    d="M77.34-77.67L77.34-77.67Q82.71-79.49 86.9-74.34L86.9-74.34Q90.23-67.89 91.09-62.3L91.09-62.3Q96.89-19.12 90.66-1.72L90.66-1.72Q89.7 1.93 86.26 4.3L86.26 4.3Q83.14 5.37 80.14 8.7L80.14 8.7Q74.66 12.68 73.05 5.59L73.05 5.59Q73.26 4.08 71.76 2.69L71.76 2.69Q69.07 3.01 64.24 1.72L64.24 1.72Q46.19 1.07 25.67 3.97L25.67 3.97 21.81 6.02Q19.55 5.91 17.83 1.18L17.83 1.18Q16.33-3.33 15.79-7.41L15.79-7.41Q13.64-37.28 16.65-55.11L16.65-55.11Q18.05-63.92 20.41-72.29L20.41-72.29Q21.38-77.02 24.6-75.3L24.6-75.3Q27.07-74.01 29.54-74.77L29.54-74.77 46.73-77.13Q64.56-78.53 73.91-76.81L73.91-76.81Q75.41-76.16 77.34-77.67ZM77.99-70.25L77.99-70.25Q76.27-74.12 72.08-70.68L72.08-70.68Q72.19-70.15 73.8-68.54L73.8-68.54Q77.67-63.59 73.05-62.09L73.05-62.09Q70.79-61.98 72.08-60.16L72.08-60.16Q74.23-56.72 70.04-54.14L70.04-54.14Q67.89-53.17 65.74-52.64L65.74-52.64Q61.02-52.42 61.02-48.77L61.02-48.77Q61.66-44.47 62.63-40.18L62.63-40.18Q62.84-37.92 64.78-37.28L64.78-37.28Q65.53-37.81 66.28-39.1L66.28-39.1Q67.03-45.44 70.47-48.77L70.47-48.77Q72.62-49.41 74.77-46.51L74.77-46.51Q76.38-44.69 75.09-40.18L75.09-40.18Q73.26-35.88 71.01-31.58L71.01-31.58Q68.54-27.29 68.32-25.14L68.32-25.14Q68-23.2 69.82-20.84L69.82-20.84Q70.9-18.69 72.72-16.54L72.72-16.54Q75.95-13.86 75.84-9.78L75.84-9.78Q75.3-8.06 72.19-7.95L72.19-7.95Q71.01-8.06 70.47-7.84L70.47-7.84Q69.93-7.3 72.19-4.73L72.19-4.73Q74.23-2.04 75.2-1.93L75.2-1.93Q78.2-1.72 80.03-6.66L80.03-6.66Q82.71-18.91 82.07-44.47L82.07-44.47Q81.32-58.87 77.99-70.25ZM60.8-70.68L58.44-70.68Q55.97-70.79 55.75-69.18L55.75-69.18Q58.65-66.92 59.08-64.67L59.08-64.67Q59.08-60.48 63.92-61.45L63.92-61.45Q67.25-61.45 68.43-62.73L68.43-62.73Q68.43-63.49 66.39-66.71L66.39-66.71Q65.53-71.54 60.8-70.68L60.8-70.68ZM47.91-69.39L47.91-69.39Q37.38-68 29.97-65.31L29.97-65.31Q26.64-63.06 26.32-61.55L26.32-61.55Q21.38-40.28 24.28-8.27L24.28-8.27Q24.81-3.97 29.22-5.16L29.22-5.16 42.11-6.55Q45.76-6.77 47.37-7.84L47.37-7.84Q49.84-11.6 52.74-15.47L52.74-15.47Q57.9-21.27 58.33-24.06L58.33-24.06Q58.33-25.24 57.26-28.36L57.26-28.36Q54.68-35.88 51.67-47.7L51.67-47.7Q50.38-49.31 47.37-48.34L47.37-48.34Q43.72-47.16 38.78-46.41L38.78-46.41Q32.01-45.12 30.51-51.13L30.51-51.13Q31.47-56.61 37.71-56.83L37.71-56.83Q42-57.79 46.3-58.33L46.3-58.33Q49.74-59.08 48.13-62.84L48.13-62.84Q47.91-64.45 48.55-66.06L48.55-66.06Q49.95-68.64 47.91-69.39ZM42.97-42.97L42.97-42.97Q45.65-45.01 48.02-41.36L48.02-41.36Q49.2-39.64 48.66-37.06L48.66-37.06Q47.91-31.58 42.86-26.43L42.86-26.43Q41.14-25.35 38.56-25.57L38.56-25.57Q37.49-25.46 36.42-24.92L36.42-24.92Q32.66-21.91 32.12-22.13L32.12-22.13Q28.25-25.78 27.07-34.59L27.07-34.59Q26.21-37.81 28.04-41.04L28.04-41.04Q29.43-43.4 31.69-41.46L31.69-41.46Q32.55-41.04 34.38-41.04L34.38-41.04Q36.52-41.79 38.67-41.79L38.67-41.79Q40.82-42.11 42.97-42.97ZM41.46-37.49L41.46-37.49Q39.42-38.46 34.8-35.45L34.8-35.45Q33.73-34.48 33.62-32.23L33.62-32.23Q34.59-26.64 39.53-30.94L39.53-30.94Q42.65-34.91 41.46-37.49ZM48.34-24.06L48.34-24.06Q52.42-25.35 52.64-24.6L52.64-24.6Q53.71-20.84 45.76-16.65L45.76-16.65Q38.78-13.43 33.52-9.78L33.52-9.78Q31.37-9.02 28.79-12.46L28.79-12.46Q26.53-14.93 29.11-16.54L29.11-16.54Q35.02-19.44 48.34-24.06ZM64.56-13.64L64.56-13.64Q63.16-18.15 58.44-14.07L58.44-14.07Q56.29-12.68 54.14-10.96L54.14-10.96Q51.99-9.35 51.78-8.81L51.78-8.81Q51.46-7.95 55.11-7.95L55.11-7.95Q58.76-8.7 66.39-8.06L66.39-8.06Q69.29-7.95 68.86-8.81L68.86-8.81Q68.54-9.45 67.35-10.63L67.35-10.63Q65.31-11.92 64.56-13.64Z"
                                    transform="translate(-14.894166946411133, 78.14523315429688)"></path>
                            </g>
                            <!---->
                            <!---->
                            <!---->
                            <!---->
                            <!---->
                            <!---->
                            <g data-gra="path-name-1" fill="#E51714" transform="translate(0,91.27616119384766)">
                                <g transform="scale(1)">
                                    <path
                                        d="M40.28-78.74L40.28-78.74Q46.94-85.83 51.03-78.31L51.03-78.31Q52.96-73.58 56.72-76.48L56.72-76.48Q60.59-79.17 63.16-78.85L63.16-78.85Q65.21-78.53 67.25-76.05L67.25-76.05Q71.65-70.9 67.14-67.78L67.14-67.78Q61.12-63.92 55.11-59.62L55.11-59.62Q52.96-57.26 53.28-56.83L53.28-56.83Q53.71-56.29 56.93-56.18L56.93-56.18Q62.41-55.97 64.56-56.61L64.56-56.61Q70.25-59.94 73.91-52.42L73.91-52.42Q75.73-44.04 68.64-35.23L68.64-35.23Q65.85-32.23 66.49-30.08L66.49-30.08Q67.25-28.36 64.67-27.07L64.67-27.07Q50.49-18.58 34.59-17.4L34.59-17.4Q32.55-17.83 31.37-14.82L31.37-14.82Q30.94-9.99 33.62-5.59L33.62-5.59Q38.24 0.32 46.3 0.32L46.3 0.32Q64.45 1.5 82.18-2.47L82.18-2.47Q89.05-2.9 90.45-9.67L90.45-9.67 91.42-15.04Q92.06-18.26 92.92-15.25L92.92-15.25Q93.99-9.13 98.18-6.02L98.18-6.02Q101.62-4.08 98.29-0.86L98.29-0.86Q97.32 0 96.14 2.15L96.14 2.15Q94.21 5.05 92.28 5.8L92.28 5.8Q75.41 11.49 50.38 10.85L50.38 10.85Q40.28 10.53 33.19 7.2L33.19 7.2Q27.82 3.97 26.43-0.54L26.43-0.54Q20.95-20.09 28.04-41.79L28.04-41.79Q27.82-42.43 26.43-43.51L26.43-43.51Q22.88-44.47 23.31-47.16L23.31-47.16Q24.06-48.88 26.64-49.74L26.64-49.74Q33.95-53.6 43.83-54.89L43.83-54.89Q46.73-54.89 48.02-57.04L48.02-57.04Q52.96-63.81 54.14-68.32L54.14-68.32Q53.5-70.36 48.66-70.58L48.66-70.58Q46.08-71.22 42.22-67.57L42.22-67.57Q28.25-55.86 20.73-52.21L20.73-52.21Q13.54-45.44 16.76-52.42L16.76-52.42Q25.67-66.49 40.28-78.74ZM59.62-51.13L59.62-51.13Q41.68-43.94 34.91-43.08L34.91-43.08Q32.33-42.54 31.9-42L31.9-42Q31.8-41.36 33.19-40.07L33.19-40.07Q35.88-38.46 35.56-35.56L35.56-35.56Q32.98-29.54 33.09-26.43L33.09-26.43Q35.13-24.92 41.14-26.86L41.14-26.86Q45.01-29.11 44.26-35.56L44.26-35.56Q42.86-39.75 44.04-41.79L44.04-41.79Q44.69-42.22 48.55-41.46L48.55-41.46Q53.28-38.99 50.7-33.95L50.7-33.95Q49.52-31.37 49.52-30.83L49.52-30.83Q49.95-30.19 50.38-30.19L50.38-30.19Q54.03-30.72 57.36-33.3L57.36-33.3Q62.41-40.5 64.13-47.59L64.13-47.59Q65.1-52.85 59.62-51.13Z"
                                        transform="translate(-15.763996124267578, 82.1806640625)"></path>
                                </g>
                            </g>
                        </g>
                    </g>
                    <!---->
                </g>
            </g>
        </g>
    </mask>
    <defs v-gra="od"></defs>
</svg>